%
M48
M72
T01C0.0120
T02C0.0138
T03C0.0400
T04C0.1300
%
T01
X6340Y4253
X7275Y5125
X7625Y5125
X8040Y4803
X8540Y4303
X8975Y5125
X9075Y5725
X11112Y5550
X11125Y5125
X11375Y6375
X10190Y7203
X9875Y8125
X8812Y8425
X7875Y7375
X6275Y6175
X6268Y5575
X5625Y6325
X5075Y6625
X4562Y5725
X5825Y7875
X5462Y8375
X5112Y10025
X4894Y11393
X7375Y10875
X8375Y11375
X9025Y9675
X11612Y9425
X11625Y8375
X11625Y7625
X14762Y5725
X15275Y6625
X15825Y6325
X16475Y6175
X16468Y5575
X17475Y5125
X17825Y5125
X18240Y4803
X18740Y4303
X19175Y5125
X19275Y5725
X20390Y7203
X20075Y8125
X19012Y8425
X18075Y7375
X16025Y7875
X15662Y8375
X15312Y10025
X15094Y11393
X17575Y10875
X18575Y11375
X19225Y9675
X21812Y9425
X21825Y8375
X21825Y7625
X21575Y6375
X21312Y5550
X21325Y5125
X22762Y5500
X24962Y5725
X25475Y6625
X26025Y6325
X26675Y6175
X26668Y5575
X27675Y5125
X28025Y5125
X28440Y4803
X28940Y4303
X29375Y5125
X29475Y5725
X30590Y7203
X30275Y8125
X29212Y8425
X28275Y7375
X26225Y7875
X25862Y8375
X25512Y10025
X25294Y11393
X27775Y10875
X28775Y11375
X29425Y9675
X32012Y9425
X32025Y8375
X32025Y7625
X31775Y6375
X31512Y5550
X31525Y5125
X32962Y5500
X35162Y5725
X36225Y6325
X35675Y6625
X36875Y6175
X36868Y5575
X37875Y5125
X38225Y5125
X38640Y4803
X39140Y4303
X39575Y5125
X39675Y5725
X40790Y7203
X40475Y8125
X39412Y8425
X38475Y7375
X36425Y7875
X36062Y8375
X35712Y10025
X35494Y11393
X37975Y10875
X38975Y11375
X39625Y9675
X42212Y9425
X42225Y8375
X42225Y7625
X41975Y6375
X41712Y5550
X41725Y5125
X43162Y5500
X45362Y5725
X46425Y6325
X45875Y6625
X47075Y6175
X47068Y5575
X48075Y5125
X48425Y5125
X48840Y4803
X49340Y4303
X49775Y5125
X49875Y5725
X51912Y5550
X51925Y5125
X52175Y6375
X50990Y7203
X50675Y8125
X49612Y8425
X48675Y7375
X46625Y7875
X46262Y8375
X45912Y10025
X45694Y11393
X48175Y10875
X49175Y11375
X49825Y9675
X52412Y9425
X52425Y8375
X52425Y7625
X55562Y5725
X56075Y6625
X56625Y6325
X57275Y6175
X57268Y5575
X58275Y5125
X58625Y5125
X59040Y4803
X59540Y4303
X59975Y5125
X60075Y5725
X61190Y7203
X60875Y8125
X59812Y8425
X58875Y7375
X56825Y7875
X56462Y8375
X56112Y10025
X55894Y11393
X58375Y10875
X59375Y11375
X60025Y9675
X62612Y9425
X62625Y8375
X62625Y7625
X62375Y6375
X62112Y5550
X62125Y5125
X63562Y5500
X61462Y3950
X57340Y4253
X53362Y5500
X51262Y3950
X47140Y4253
X41062Y3950
X36940Y4253
X30862Y3950
X26740Y4253
X20662Y3950
X16540Y4253
X12562Y5500
X10462Y3950
X10462Y14150
X11125Y15325
X11112Y15750
X11375Y16575
X12562Y15700
X14762Y15925
X15275Y16825
X15825Y16525
X16475Y16375
X16468Y15775
X17475Y15325
X17825Y15325
X18240Y15003
X18740Y14503
X19175Y15325
X19275Y15925
X20390Y17403
X20075Y18325
X19012Y18625
X19225Y19875
X17575Y21075
X18575Y21575
X21812Y19625
X21825Y18575
X21825Y17825
X21575Y16575
X21312Y15750
X21325Y15325
X20662Y14150
X22762Y15700
X24962Y15925
X25475Y16825
X26025Y16525
X26675Y16375
X26668Y15775
X27675Y15325
X28025Y15325
X28440Y15003
X28940Y14503
X29375Y15325
X29475Y15925
X30590Y17403
X30275Y18325
X29212Y18625
X29425Y19875
X27775Y21075
X28775Y21575
X25294Y21593
X25512Y20225
X25862Y18575
X26225Y18075
X28275Y17575
X31775Y16575
X31512Y15750
X31525Y15325
X30862Y14150
X32962Y15700
X35162Y15925
X36225Y16525
X35675Y16825
X36875Y16375
X36868Y15775
X37875Y15325
X38225Y15325
X38640Y15003
X39140Y14503
X39575Y15325
X39675Y15925
X40790Y17403
X40475Y18325
X39412Y18625
X39625Y19875
X37975Y21075
X38975Y21575
X35712Y20225
X35494Y21593
X32012Y19625
X32025Y18575
X32025Y17825
X36062Y18575
X36425Y18075
X38475Y17575
X41975Y16575
X41712Y15750
X41725Y15325
X41062Y14150
X43162Y15700
X45362Y15925
X46425Y16525
X45875Y16825
X47075Y16375
X47068Y15775
X48075Y15325
X48425Y15325
X48840Y15003
X49340Y14503
X49775Y15325
X49875Y15925
X51912Y15750
X51925Y15325
X52175Y16575
X53362Y15700
X55562Y15925
X56075Y16825
X56625Y16525
X57275Y16375
X57268Y15775
X58275Y15325
X58625Y15325
X59040Y15003
X59540Y14503
X59975Y15325
X60075Y15925
X61190Y17403
X60875Y18325
X59812Y18625
X60025Y19875
X58375Y21075
X59375Y21575
X62612Y19625
X62625Y18575
X62625Y17825
X62375Y16575
X62112Y15750
X62125Y15325
X61462Y14150
X63562Y15700
X58875Y17575
X56825Y18075
X56462Y18575
X56112Y20225
X55894Y21593
X52412Y19625
X52425Y18575
X52425Y17825
X50990Y17403
X50675Y18325
X49612Y18625
X49825Y19875
X49175Y21575
X48175Y21075
X45912Y20225
X45694Y21593
X42212Y19625
X42225Y18575
X42225Y17825
X46262Y18575
X46625Y18075
X48675Y17575
X47140Y14453
X51262Y14150
X57340Y14453
X57340Y24653
X58275Y25525
X58625Y25525
X59040Y25203
X59540Y24703
X59975Y25525
X60075Y26125
X61190Y27603
X60875Y28525
X59812Y28825
X60025Y30075
X58375Y31275
X59375Y31775
X62612Y29825
X62625Y28775
X62625Y28025
X62375Y26775
X62112Y25950
X62125Y25525
X61462Y24350
X63562Y25900
X58875Y27775
X57275Y26575
X57268Y25975
X56625Y26725
X56075Y27025
X55562Y26125
X53362Y25900
X51912Y25950
X51925Y25525
X51262Y24350
X49775Y25525
X49875Y26125
X48840Y25203
X48425Y25525
X48075Y25525
X47068Y25975
X47075Y26575
X46425Y26725
X45875Y27025
X45362Y26125
X43162Y25900
X41712Y25950
X41725Y25525
X41062Y24350
X39575Y25525
X39675Y26125
X38640Y25203
X38225Y25525
X37875Y25525
X39140Y24703
X36940Y24653
X36868Y25975
X36875Y26575
X36225Y26725
X35675Y27025
X35162Y26125
X32962Y25900
X31512Y25950
X31525Y25525
X30862Y24350
X29375Y25525
X29475Y26125
X28440Y25203
X28025Y25525
X27675Y25525
X26668Y25975
X26675Y26575
X26025Y26725
X25475Y27025
X24962Y26125
X22762Y25900
X21312Y25950
X21325Y25525
X20662Y24350
X19175Y25525
X19275Y26125
X18240Y25203
X17825Y25525
X17475Y25525
X16468Y25975
X16475Y26575
X15825Y26725
X15275Y27025
X14762Y26125
X12562Y25900
X11112Y25950
X11125Y25525
X10462Y24350
X8975Y25525
X9075Y26125
X8040Y25203
X7625Y25525
X7275Y25525
X6268Y25975
X6275Y26575
X5625Y26725
X5075Y27025
X4562Y26125
X6340Y24653
X8540Y24703
X11375Y26775
X11625Y28025
X11625Y28775
X11612Y29825
X9875Y28525
X10190Y27603
X8812Y28825
X9025Y30075
X7375Y31275
X8375Y31775
X10462Y34550
X11125Y35725
X11112Y36150
X11375Y36975
X11625Y38225
X11625Y38975
X11612Y40025
X9875Y38725
X10190Y37803
X8812Y39025
X7875Y37975
X6275Y36775
X5625Y36925
X5075Y37225
X4562Y36325
X6268Y36175
X7275Y35725
X7625Y35725
X8040Y35403
X8540Y34903
X8975Y35725
X9075Y36325
X6340Y34853
X4894Y31793
X5112Y30425
X5462Y28775
X5825Y28275
X7875Y27775
X15312Y30425
X15094Y31793
X17575Y31275
X18575Y31775
X19225Y30075
X19012Y28825
X20075Y28525
X20390Y27603
X21575Y26775
X21825Y28025
X21825Y28775
X21812Y29825
X25512Y30425
X25294Y31793
X27775Y31275
X28775Y31775
X29425Y30075
X29212Y28825
X30275Y28525
X30590Y27603
X31775Y26775
X32025Y28025
X32025Y28775
X32012Y29825
X35494Y31793
X35712Y30425
X36062Y28775
X36425Y28275
X38475Y27775
X39412Y28825
X40475Y28525
X40790Y27603
X41975Y26775
X42225Y28025
X42225Y28775
X42212Y29825
X39625Y30075
X37975Y31275
X38975Y31775
X41062Y34550
X41725Y35725
X41712Y36150
X41975Y36975
X42225Y38225
X42225Y38975
X42212Y40025
X40475Y38725
X40790Y37803
X39412Y39025
X38475Y37975
X36875Y36775
X36225Y36925
X35675Y37225
X35162Y36325
X36868Y36175
X37875Y35725
X38225Y35725
X38640Y35403
X39140Y34903
X39575Y35725
X39675Y36325
X36940Y34853
X32962Y36100
X31512Y36150
X31525Y35725
X30862Y34550
X29375Y35725
X28940Y34903
X28440Y35403
X28025Y35725
X27675Y35725
X26740Y34853
X26668Y36175
X26675Y36775
X26025Y36925
X25475Y37225
X24962Y36325
X22762Y36100
X21312Y36150
X21325Y35725
X20662Y34550
X19175Y35725
X18740Y34903
X18240Y35403
X17825Y35725
X17475Y35725
X16468Y36175
X16475Y36775
X15825Y36925
X15275Y37225
X14762Y36325
X12562Y36100
X16025Y38475
X15662Y38975
X15312Y40625
X15094Y41993
X17575Y41475
X18575Y41975
X19225Y40275
X19012Y39025
X20075Y38725
X20390Y37803
X21575Y36975
X21825Y38225
X21825Y38975
X21812Y40025
X25512Y40625
X25294Y41993
X27775Y41475
X28775Y41975
X29425Y40275
X29212Y39025
X30275Y38725
X30590Y37803
X31775Y36975
X32025Y38225
X32025Y38975
X32012Y40025
X35494Y41993
X35712Y40625
X36062Y38975
X36425Y38475
X39625Y40275
X37975Y41475
X38975Y41975
X45694Y41993
X45912Y40625
X46262Y38975
X46625Y38475
X45875Y37225
X46425Y36925
X47075Y36775
X47068Y36175
X48075Y35725
X48425Y35725
X48840Y35403
X49340Y34903
X49775Y35725
X49875Y36325
X51912Y36150
X51925Y35725
X51262Y34550
X53362Y36100
X52175Y36975
X52425Y38225
X52425Y38975
X52412Y40025
X50675Y38725
X50990Y37803
X49612Y39025
X48675Y37975
X45362Y36325
X43162Y36100
X47140Y34853
X45694Y31793
X45912Y30425
X46262Y28775
X46625Y28275
X48675Y27775
X49612Y28825
X50675Y28525
X50990Y27603
X52175Y26775
X52425Y28025
X52425Y28775
X52412Y29825
X49825Y30075
X48175Y31275
X49175Y31775
X55894Y31793
X56112Y30425
X56462Y28775
X56825Y28275
X49340Y24703
X47140Y24653
X36940Y14453
X26740Y14453
X18075Y17575
X16025Y18075
X15662Y18575
X15312Y20225
X15094Y21593
X11612Y19625
X11625Y18575
X11625Y17825
X10190Y17403
X9875Y18325
X8812Y18625
X9025Y19875
X8375Y21575
X7375Y21075
X5112Y20225
X4894Y21593
X5462Y18575
X5825Y18075
X5075Y16825
X5625Y16525
X6275Y16375
X6268Y15775
X7275Y15325
X7625Y15325
X8040Y15003
X8540Y14503
X8975Y15325
X9075Y15925
X7875Y17575
X4562Y15925
X6340Y14453
X16540Y14453
X16540Y24653
X18740Y24703
X18075Y27775
X16025Y28275
X15662Y28775
X16540Y34853
X19275Y36325
X18075Y37975
X25862Y38975
X26225Y38475
X28275Y37975
X29475Y36325
X25862Y28775
X26225Y28275
X28275Y27775
X28940Y24703
X26740Y24653
X5825Y38475
X5462Y38975
X5112Y40625
X4894Y41993
X7375Y41475
X8375Y41975
X9025Y40275
X48175Y41475
X49175Y41975
X49825Y40275
X56112Y40625
X55894Y41993
X58375Y41475
X59375Y41975
X60025Y40275
X59812Y39025
X60875Y38725
X61190Y37803
X62375Y36975
X62112Y36150
X62125Y35725
X61462Y34550
X59975Y35725
X59540Y34903
X59040Y35403
X58625Y35725
X58275Y35725
X57268Y36175
X57275Y36775
X56625Y36925
X56075Y37225
X55562Y36325
X57340Y34853
X60075Y36325
X58875Y37975
X56825Y38475
X56462Y38975
X62625Y38975
X62625Y38225
X62612Y40025
X63562Y36100
T02
X60625Y35175
X56375Y35325
X55125Y37225
X58875Y40013
X50425Y35175
X46175Y35325
X44925Y37225
X48675Y40013
X40225Y35175
X35975Y35325
X34725Y37225
X38475Y40013
X30025Y35175
X25775Y35325
X24525Y37225
X28275Y40013
X19825Y35175
X15575Y35325
X14325Y37225
X18075Y40013
X9625Y35175
X5375Y35325
X4125Y37225
X7875Y40013
X7875Y29813
X4125Y27025
X5375Y25125
X9625Y24975
X14325Y27025
X15575Y25125
X19825Y24975
X24525Y27025
X25775Y25125
X30025Y24975
X34725Y27025
X35975Y25125
X40225Y24975
X44925Y27025
X46175Y25125
X50425Y24975
X55125Y27025
X56375Y25125
X60625Y24975
X58875Y29813
X48675Y29813
X38475Y29813
X28275Y29813
X18075Y29813
X18075Y19613
X14325Y16825
X15575Y14925
X19825Y14775
X24525Y16825
X25775Y14925
X30025Y14775
X34725Y16825
X35975Y14925
X40225Y14775
X44925Y16825
X46175Y14925
X50425Y14775
X55125Y16825
X56375Y14925
X60625Y14775
X58875Y19613
X48675Y19613
X38475Y19613
X28275Y19613
X28275Y9413
X24525Y6625
X25775Y4725
X30025Y4575
X34725Y6625
X35975Y4725
X40225Y4575
X44925Y6625
X46175Y4725
X50425Y4575
X55125Y6625
X56375Y4725
X60625Y4575
X58875Y9413
X48675Y9413
X38475Y9413
X19825Y4575
X15575Y4725
X14325Y6625
X18075Y9413
X9625Y4575
X5375Y4725
X4125Y6625
X7875Y9413
X9625Y14775
X5375Y14925
X4125Y16825
X7875Y19613
T03
X7875Y22575
X6875Y22575
X5875Y22575
X8875Y22575
X9875Y22575
X16075Y22575
X17075Y22575
X18075Y22575
X19075Y22575
X20075Y22575
X26275Y22575
X27275Y22575
X28275Y22575
X29275Y22575
X30275Y22575
X36475Y22575
X37475Y22575
X38475Y22575
X39475Y22575
X40475Y22575
X46675Y22575
X47675Y22575
X48675Y22575
X49675Y22575
X50675Y22575
X56875Y22575
X57875Y22575
X58875Y22575
X59875Y22575
X60875Y22575
X60875Y12375
X59875Y12375
X58875Y12375
X57875Y12375
X56875Y12375
X50675Y12375
X49675Y12375
X48675Y12375
X47675Y12375
X46675Y12375
X40475Y12375
X39475Y12375
X38475Y12375
X37475Y12375
X36475Y12375
X30275Y12375
X29275Y12375
X28275Y12375
X27275Y12375
X26275Y12375
X20075Y12375
X19075Y12375
X18075Y12375
X17075Y12375
X16075Y12375
X9875Y12375
X8875Y12375
X7875Y12375
X6875Y12375
X5875Y12375
X5875Y32775
X6875Y32775
X7875Y32775
X8875Y32775
X9875Y32775
X16075Y32775
X17075Y32775
X18075Y32775
X19075Y32775
X20075Y32775
X26275Y32775
X27275Y32775
X28275Y32775
X29275Y32775
X30275Y32775
X36475Y32775
X37475Y32775
X38475Y32775
X39475Y32775
X40475Y32775
X46675Y32775
X47675Y32775
X48675Y32775
X49675Y32775
X50675Y32775
X56875Y32775
X57875Y32775
X58875Y32775
X59875Y32775
X60875Y32775
X60875Y42975
X59875Y42975
X58875Y42975
X57875Y42975
X56875Y42975
X50675Y42975
X49675Y42975
X48675Y42975
X47675Y42975
X46675Y42975
X40475Y42975
X39475Y42975
X38475Y42975
X37475Y42975
X36475Y42975
X30275Y42975
X29275Y42975
X28275Y42975
X27275Y42975
X26275Y42975
X20075Y42975
X19075Y42975
X18075Y42975
X17075Y42975
X16075Y42975
X9875Y42975
X8875Y42975
X7875Y42975
X6875Y42975
X5875Y42975
T04
X3875Y3875
X11875Y3875
X14075Y3875
X22075Y3875
X24275Y3875
X32275Y3875
X34475Y3875
X42475Y3875
X44675Y3875
X52675Y3875
X54875Y3875
X62875Y3875
X62875Y11875
X62875Y14075
X54875Y14075
X52675Y14075
X52675Y11875
X54875Y11875
X44675Y11875
X42475Y11875
X42475Y14075
X44675Y14075
X34475Y14075
X32275Y14075
X32275Y11875
X34475Y11875
X24275Y11875
X22075Y11875
X22075Y14075
X24275Y14075
X14075Y14075
X11875Y14075
X11875Y11875
X14075Y11875
X3875Y11875
X3875Y14075
X3875Y22075
X3875Y24275
X11875Y24275
X14075Y24275
X14075Y22075
X11875Y22075
X22075Y22075
X24275Y22075
X24275Y24275
X22075Y24275
X32275Y24275
X34475Y24275
X34475Y22075
X32275Y22075
X42475Y22075
X44675Y22075
X44675Y24275
X42475Y24275
X52675Y24275
X54875Y24275
X54875Y22075
X52675Y22075
X62875Y22075
X62875Y24275
X62875Y32275
X62875Y34475
X54875Y34475
X52675Y34475
X52675Y32275
X54875Y32275
X44675Y32275
X42475Y32275
X42475Y34475
X44675Y34475
X34475Y34475
X32275Y34475
X32275Y32275
X34475Y32275
X24275Y32275
X22075Y32275
X22075Y34475
X24275Y34475
X14075Y34475
X11875Y34475
X11875Y32275
X14075Y32275
X3875Y32275
X3875Y34475
X3875Y42475
X11875Y42475
X14075Y42475
X22075Y42475
X24275Y42475
X32275Y42475
X34475Y42475
X42475Y42475
X44675Y42475
X52675Y42475
X54875Y42475
X62875Y42475
M30
