G75*
%MOIN*%
%OFA0B0*%
%FSLAX25Y25*%
%IPPOS*%
%LPD*%
%AMOC8*
5,1,8,0,0,1.08239X$1,22.5*
%
%ADD10R,0.05131X0.04737*%
%ADD11R,0.08674X0.05524*%
%ADD12R,0.06115X0.03162*%
%ADD13C,0.03300*%
%ADD14C,0.08200*%
%ADD15R,0.01981X0.05918*%
%ADD16R,0.07887X0.09461*%
%ADD17C,0.01990*%
%ADD18R,0.04737X0.05131*%
%ADD19R,0.02965X0.05524*%
%ADD20R,0.03280X0.04068*%
%ADD21R,0.05918X0.05918*%
%ADD22C,0.13800*%
%ADD23R,0.03950X0.05524*%
%ADD24C,0.04737*%
%ADD25C,0.05000*%
%ADD26C,0.06706*%
D10*
X0035404Y0053750D03*
X0042096Y0053750D03*
X0050404Y0051250D03*
X0057096Y0051250D03*
X0057096Y0058750D03*
X0050404Y0058750D03*
X0042096Y0061250D03*
X0035404Y0061250D03*
X0065404Y0066250D03*
X0072096Y0066250D03*
X0072096Y0073750D03*
X0065404Y0073750D03*
X0062096Y0088750D03*
X0055404Y0088750D03*
X0055404Y0096250D03*
X0062096Y0096250D03*
X0062096Y0103750D03*
X0055404Y0103750D03*
X0085404Y0073750D03*
X0092096Y0073750D03*
X0092096Y0066250D03*
X0085404Y0066250D03*
X0100404Y0058750D03*
X0107096Y0058750D03*
X0107096Y0051250D03*
X0100404Y0051250D03*
X0115404Y0058750D03*
X0122096Y0058750D03*
X0137404Y0061250D03*
X0144096Y0061250D03*
X0152404Y0058750D03*
X0159096Y0058750D03*
X0159096Y0051250D03*
X0152404Y0051250D03*
X0144096Y0053750D03*
X0137404Y0053750D03*
X0167404Y0066250D03*
X0174096Y0066250D03*
X0174096Y0073750D03*
X0167404Y0073750D03*
X0164096Y0088750D03*
X0157404Y0088750D03*
X0157404Y0096250D03*
X0164096Y0096250D03*
X0164096Y0103750D03*
X0157404Y0103750D03*
X0187404Y0073750D03*
X0194096Y0073750D03*
X0194096Y0066250D03*
X0187404Y0066250D03*
X0202404Y0058750D03*
X0209096Y0058750D03*
X0209096Y0051250D03*
X0202404Y0051250D03*
X0217404Y0058750D03*
X0224096Y0058750D03*
X0239404Y0061250D03*
X0246096Y0061250D03*
X0254404Y0058750D03*
X0261096Y0058750D03*
X0261096Y0051250D03*
X0254404Y0051250D03*
X0246096Y0053750D03*
X0239404Y0053750D03*
X0269404Y0066250D03*
X0276096Y0066250D03*
X0276096Y0073750D03*
X0269404Y0073750D03*
X0266096Y0088750D03*
X0259404Y0088750D03*
X0259404Y0096250D03*
X0266096Y0096250D03*
X0266096Y0103750D03*
X0259404Y0103750D03*
X0289404Y0073750D03*
X0296096Y0073750D03*
X0296096Y0066250D03*
X0289404Y0066250D03*
X0304404Y0058750D03*
X0311096Y0058750D03*
X0311096Y0051250D03*
X0304404Y0051250D03*
X0319404Y0058750D03*
X0326096Y0058750D03*
X0341404Y0061250D03*
X0348096Y0061250D03*
X0348096Y0053750D03*
X0341404Y0053750D03*
X0356404Y0051250D03*
X0363096Y0051250D03*
X0363096Y0058750D03*
X0356404Y0058750D03*
X0371404Y0066250D03*
X0378096Y0066250D03*
X0378096Y0073750D03*
X0371404Y0073750D03*
X0391404Y0073750D03*
X0398096Y0073750D03*
X0398096Y0066250D03*
X0391404Y0066250D03*
X0406404Y0058750D03*
X0413096Y0058750D03*
X0413096Y0051250D03*
X0406404Y0051250D03*
X0421404Y0058750D03*
X0428096Y0058750D03*
X0443404Y0061250D03*
X0450096Y0061250D03*
X0458404Y0058750D03*
X0465096Y0058750D03*
X0465096Y0051250D03*
X0458404Y0051250D03*
X0450096Y0053750D03*
X0443404Y0053750D03*
X0473404Y0066250D03*
X0480096Y0066250D03*
X0480096Y0073750D03*
X0473404Y0073750D03*
X0470096Y0088750D03*
X0463404Y0088750D03*
X0463404Y0096250D03*
X0470096Y0096250D03*
X0470096Y0103750D03*
X0463404Y0103750D03*
X0493404Y0073750D03*
X0500096Y0073750D03*
X0500096Y0066250D03*
X0493404Y0066250D03*
X0508404Y0058750D03*
X0515096Y0058750D03*
X0515096Y0051250D03*
X0508404Y0051250D03*
X0523404Y0058750D03*
X0530096Y0058750D03*
X0545404Y0061250D03*
X0552096Y0061250D03*
X0560404Y0058750D03*
X0567096Y0058750D03*
X0567096Y0051250D03*
X0560404Y0051250D03*
X0552096Y0053750D03*
X0545404Y0053750D03*
X0575404Y0066250D03*
X0582096Y0066250D03*
X0582096Y0073750D03*
X0575404Y0073750D03*
X0572096Y0088750D03*
X0565404Y0088750D03*
X0565404Y0096250D03*
X0572096Y0096250D03*
X0572096Y0103750D03*
X0565404Y0103750D03*
X0595404Y0073750D03*
X0602096Y0073750D03*
X0602096Y0066250D03*
X0595404Y0066250D03*
X0610404Y0058750D03*
X0617096Y0058750D03*
X0617096Y0051250D03*
X0610404Y0051250D03*
X0625404Y0058750D03*
X0632096Y0058750D03*
X0617096Y0153250D03*
X0610404Y0153250D03*
X0610404Y0160750D03*
X0617096Y0160750D03*
X0625404Y0160750D03*
X0632096Y0160750D03*
X0602096Y0168250D03*
X0595404Y0168250D03*
X0595404Y0175750D03*
X0602096Y0175750D03*
X0582096Y0175750D03*
X0575404Y0175750D03*
X0575404Y0168250D03*
X0582096Y0168250D03*
X0567096Y0160750D03*
X0560404Y0160750D03*
X0560404Y0153250D03*
X0567096Y0153250D03*
X0552096Y0155750D03*
X0545404Y0155750D03*
X0545404Y0163250D03*
X0552096Y0163250D03*
X0530096Y0160750D03*
X0523404Y0160750D03*
X0515096Y0160750D03*
X0508404Y0160750D03*
X0508404Y0153250D03*
X0515096Y0153250D03*
X0500096Y0168250D03*
X0493404Y0168250D03*
X0493404Y0175750D03*
X0500096Y0175750D03*
X0480096Y0175750D03*
X0473404Y0175750D03*
X0473404Y0168250D03*
X0480096Y0168250D03*
X0465096Y0160750D03*
X0458404Y0160750D03*
X0458404Y0153250D03*
X0465096Y0153250D03*
X0450096Y0155750D03*
X0443404Y0155750D03*
X0443404Y0163250D03*
X0450096Y0163250D03*
X0428096Y0160750D03*
X0421404Y0160750D03*
X0413096Y0160750D03*
X0406404Y0160750D03*
X0406404Y0153250D03*
X0413096Y0153250D03*
X0398096Y0168250D03*
X0391404Y0168250D03*
X0391404Y0175750D03*
X0398096Y0175750D03*
X0378096Y0175750D03*
X0371404Y0175750D03*
X0371404Y0168250D03*
X0378096Y0168250D03*
X0363096Y0160750D03*
X0356404Y0160750D03*
X0356404Y0153250D03*
X0363096Y0153250D03*
X0348096Y0155750D03*
X0341404Y0155750D03*
X0341404Y0163250D03*
X0348096Y0163250D03*
X0326096Y0160750D03*
X0319404Y0160750D03*
X0311096Y0160750D03*
X0304404Y0160750D03*
X0304404Y0153250D03*
X0311096Y0153250D03*
X0296096Y0168250D03*
X0289404Y0168250D03*
X0289404Y0175750D03*
X0296096Y0175750D03*
X0276096Y0175750D03*
X0269404Y0175750D03*
X0269404Y0168250D03*
X0276096Y0168250D03*
X0261096Y0160750D03*
X0254404Y0160750D03*
X0254404Y0153250D03*
X0261096Y0153250D03*
X0246096Y0155750D03*
X0239404Y0155750D03*
X0239404Y0163250D03*
X0246096Y0163250D03*
X0224096Y0160750D03*
X0217404Y0160750D03*
X0209096Y0160750D03*
X0202404Y0160750D03*
X0202404Y0153250D03*
X0209096Y0153250D03*
X0194096Y0168250D03*
X0187404Y0168250D03*
X0187404Y0175750D03*
X0194096Y0175750D03*
X0174096Y0175750D03*
X0167404Y0175750D03*
X0167404Y0168250D03*
X0174096Y0168250D03*
X0159096Y0160750D03*
X0152404Y0160750D03*
X0152404Y0153250D03*
X0159096Y0153250D03*
X0144096Y0155750D03*
X0137404Y0155750D03*
X0137404Y0163250D03*
X0144096Y0163250D03*
X0122096Y0160750D03*
X0115404Y0160750D03*
X0107096Y0160750D03*
X0100404Y0160750D03*
X0100404Y0153250D03*
X0107096Y0153250D03*
X0092096Y0168250D03*
X0085404Y0168250D03*
X0085404Y0175750D03*
X0092096Y0175750D03*
X0072096Y0175750D03*
X0065404Y0175750D03*
X0065404Y0168250D03*
X0072096Y0168250D03*
X0057096Y0160750D03*
X0050404Y0160750D03*
X0050404Y0153250D03*
X0057096Y0153250D03*
X0042096Y0155750D03*
X0035404Y0155750D03*
X0035404Y0163250D03*
X0042096Y0163250D03*
X0055404Y0190750D03*
X0062096Y0190750D03*
X0062096Y0198250D03*
X0055404Y0198250D03*
X0055404Y0205750D03*
X0062096Y0205750D03*
X0057096Y0255250D03*
X0050404Y0255250D03*
X0042096Y0257750D03*
X0035404Y0257750D03*
X0035404Y0265250D03*
X0042096Y0265250D03*
X0050404Y0262750D03*
X0057096Y0262750D03*
X0065404Y0270250D03*
X0072096Y0270250D03*
X0072096Y0277750D03*
X0065404Y0277750D03*
X0062096Y0292750D03*
X0055404Y0292750D03*
X0055404Y0300250D03*
X0062096Y0300250D03*
X0062096Y0307750D03*
X0055404Y0307750D03*
X0085404Y0277750D03*
X0092096Y0277750D03*
X0092096Y0270250D03*
X0085404Y0270250D03*
X0100404Y0262750D03*
X0107096Y0262750D03*
X0115404Y0262750D03*
X0122096Y0262750D03*
X0137404Y0265250D03*
X0144096Y0265250D03*
X0144096Y0257750D03*
X0137404Y0257750D03*
X0152404Y0255250D03*
X0159096Y0255250D03*
X0159096Y0262750D03*
X0152404Y0262750D03*
X0167404Y0270250D03*
X0174096Y0270250D03*
X0174096Y0277750D03*
X0167404Y0277750D03*
X0164096Y0292750D03*
X0157404Y0292750D03*
X0157404Y0300250D03*
X0164096Y0300250D03*
X0164096Y0307750D03*
X0157404Y0307750D03*
X0187404Y0277750D03*
X0194096Y0277750D03*
X0194096Y0270250D03*
X0187404Y0270250D03*
X0202404Y0262750D03*
X0209096Y0262750D03*
X0217404Y0262750D03*
X0224096Y0262750D03*
X0239404Y0265250D03*
X0246096Y0265250D03*
X0246096Y0257750D03*
X0239404Y0257750D03*
X0254404Y0255250D03*
X0261096Y0255250D03*
X0261096Y0262750D03*
X0254404Y0262750D03*
X0269404Y0270250D03*
X0276096Y0270250D03*
X0276096Y0277750D03*
X0269404Y0277750D03*
X0266096Y0292750D03*
X0259404Y0292750D03*
X0259404Y0300250D03*
X0266096Y0300250D03*
X0266096Y0307750D03*
X0259404Y0307750D03*
X0289404Y0277750D03*
X0296096Y0277750D03*
X0296096Y0270250D03*
X0289404Y0270250D03*
X0304404Y0262750D03*
X0311096Y0262750D03*
X0311096Y0255250D03*
X0304404Y0255250D03*
X0319404Y0262750D03*
X0326096Y0262750D03*
X0341404Y0265250D03*
X0348096Y0265250D03*
X0348096Y0257750D03*
X0341404Y0257750D03*
X0356404Y0255250D03*
X0363096Y0255250D03*
X0363096Y0262750D03*
X0356404Y0262750D03*
X0371404Y0270250D03*
X0378096Y0270250D03*
X0378096Y0277750D03*
X0371404Y0277750D03*
X0391404Y0277750D03*
X0398096Y0277750D03*
X0398096Y0270250D03*
X0391404Y0270250D03*
X0406404Y0262750D03*
X0413096Y0262750D03*
X0421404Y0262750D03*
X0428096Y0262750D03*
X0443404Y0265250D03*
X0450096Y0265250D03*
X0450096Y0257750D03*
X0443404Y0257750D03*
X0458404Y0255250D03*
X0465096Y0255250D03*
X0465096Y0262750D03*
X0458404Y0262750D03*
X0473404Y0270250D03*
X0480096Y0270250D03*
X0480096Y0277750D03*
X0473404Y0277750D03*
X0470096Y0292750D03*
X0463404Y0292750D03*
X0463404Y0300250D03*
X0470096Y0300250D03*
X0470096Y0307750D03*
X0463404Y0307750D03*
X0493404Y0277750D03*
X0500096Y0277750D03*
X0500096Y0270250D03*
X0493404Y0270250D03*
X0508404Y0262750D03*
X0515096Y0262750D03*
X0523404Y0262750D03*
X0530096Y0262750D03*
X0545404Y0265250D03*
X0552096Y0265250D03*
X0552096Y0257750D03*
X0545404Y0257750D03*
X0560404Y0255250D03*
X0567096Y0255250D03*
X0567096Y0262750D03*
X0560404Y0262750D03*
X0575404Y0270250D03*
X0582096Y0270250D03*
X0582096Y0277750D03*
X0575404Y0277750D03*
X0572096Y0292750D03*
X0565404Y0292750D03*
X0565404Y0300250D03*
X0572096Y0300250D03*
X0572096Y0307750D03*
X0565404Y0307750D03*
X0595404Y0277750D03*
X0602096Y0277750D03*
X0602096Y0270250D03*
X0595404Y0270250D03*
X0610404Y0262750D03*
X0617096Y0262750D03*
X0625404Y0262750D03*
X0632096Y0262750D03*
X0617096Y0255250D03*
X0610404Y0255250D03*
X0572096Y0205750D03*
X0565404Y0205750D03*
X0565404Y0198250D03*
X0572096Y0198250D03*
X0572096Y0190750D03*
X0565404Y0190750D03*
X0515096Y0255250D03*
X0508404Y0255250D03*
X0470096Y0205750D03*
X0463404Y0205750D03*
X0463404Y0198250D03*
X0470096Y0198250D03*
X0470096Y0190750D03*
X0463404Y0190750D03*
X0413096Y0255250D03*
X0406404Y0255250D03*
X0368096Y0292750D03*
X0361404Y0292750D03*
X0361404Y0300250D03*
X0368096Y0300250D03*
X0368096Y0307750D03*
X0361404Y0307750D03*
X0363096Y0357250D03*
X0356404Y0357250D03*
X0356404Y0364750D03*
X0363096Y0364750D03*
X0371404Y0372250D03*
X0378096Y0372250D03*
X0378096Y0379750D03*
X0371404Y0379750D03*
X0391404Y0379750D03*
X0398096Y0379750D03*
X0398096Y0372250D03*
X0391404Y0372250D03*
X0406404Y0364750D03*
X0413096Y0364750D03*
X0421404Y0364750D03*
X0428096Y0364750D03*
X0443404Y0367250D03*
X0450096Y0367250D03*
X0450096Y0359750D03*
X0443404Y0359750D03*
X0458404Y0357250D03*
X0465096Y0357250D03*
X0465096Y0364750D03*
X0458404Y0364750D03*
X0473404Y0372250D03*
X0480096Y0372250D03*
X0480096Y0379750D03*
X0473404Y0379750D03*
X0470096Y0394750D03*
X0463404Y0394750D03*
X0463404Y0402250D03*
X0470096Y0402250D03*
X0470096Y0409750D03*
X0463404Y0409750D03*
X0493404Y0379750D03*
X0500096Y0379750D03*
X0500096Y0372250D03*
X0493404Y0372250D03*
X0508404Y0364750D03*
X0515096Y0364750D03*
X0523404Y0364750D03*
X0530096Y0364750D03*
X0545404Y0367250D03*
X0552096Y0367250D03*
X0552096Y0359750D03*
X0545404Y0359750D03*
X0560404Y0357250D03*
X0567096Y0357250D03*
X0567096Y0364750D03*
X0560404Y0364750D03*
X0575404Y0372250D03*
X0582096Y0372250D03*
X0582096Y0379750D03*
X0575404Y0379750D03*
X0572096Y0394750D03*
X0565404Y0394750D03*
X0565404Y0402250D03*
X0572096Y0402250D03*
X0572096Y0409750D03*
X0565404Y0409750D03*
X0595404Y0379750D03*
X0602096Y0379750D03*
X0602096Y0372250D03*
X0595404Y0372250D03*
X0610404Y0364750D03*
X0617096Y0364750D03*
X0625404Y0364750D03*
X0632096Y0364750D03*
X0617096Y0357250D03*
X0610404Y0357250D03*
X0515096Y0357250D03*
X0508404Y0357250D03*
X0413096Y0357250D03*
X0406404Y0357250D03*
X0368096Y0394750D03*
X0361404Y0394750D03*
X0361404Y0402250D03*
X0368096Y0402250D03*
X0368096Y0409750D03*
X0361404Y0409750D03*
X0348096Y0367250D03*
X0341404Y0367250D03*
X0341404Y0359750D03*
X0348096Y0359750D03*
X0326096Y0364750D03*
X0319404Y0364750D03*
X0311096Y0364750D03*
X0304404Y0364750D03*
X0304404Y0357250D03*
X0311096Y0357250D03*
X0296096Y0372250D03*
X0289404Y0372250D03*
X0289404Y0379750D03*
X0296096Y0379750D03*
X0276096Y0379750D03*
X0269404Y0379750D03*
X0269404Y0372250D03*
X0276096Y0372250D03*
X0261096Y0364750D03*
X0254404Y0364750D03*
X0246096Y0367250D03*
X0239404Y0367250D03*
X0239404Y0359750D03*
X0246096Y0359750D03*
X0254404Y0357250D03*
X0261096Y0357250D03*
X0224096Y0364750D03*
X0217404Y0364750D03*
X0209096Y0364750D03*
X0202404Y0364750D03*
X0194096Y0372250D03*
X0187404Y0372250D03*
X0187404Y0379750D03*
X0194096Y0379750D03*
X0174096Y0379750D03*
X0167404Y0379750D03*
X0167404Y0372250D03*
X0174096Y0372250D03*
X0159096Y0364750D03*
X0152404Y0364750D03*
X0144096Y0367250D03*
X0137404Y0367250D03*
X0137404Y0359750D03*
X0144096Y0359750D03*
X0152404Y0357250D03*
X0159096Y0357250D03*
X0122096Y0364750D03*
X0115404Y0364750D03*
X0107096Y0364750D03*
X0100404Y0364750D03*
X0092096Y0372250D03*
X0085404Y0372250D03*
X0085404Y0379750D03*
X0092096Y0379750D03*
X0072096Y0379750D03*
X0065404Y0379750D03*
X0065404Y0372250D03*
X0072096Y0372250D03*
X0057096Y0364750D03*
X0050404Y0364750D03*
X0042096Y0367250D03*
X0035404Y0367250D03*
X0035404Y0359750D03*
X0042096Y0359750D03*
X0050404Y0357250D03*
X0057096Y0357250D03*
X0100404Y0357250D03*
X0107096Y0357250D03*
X0062096Y0394750D03*
X0055404Y0394750D03*
X0055404Y0402250D03*
X0062096Y0402250D03*
X0062096Y0409750D03*
X0055404Y0409750D03*
X0157404Y0409750D03*
X0164096Y0409750D03*
X0164096Y0402250D03*
X0157404Y0402250D03*
X0157404Y0394750D03*
X0164096Y0394750D03*
X0202404Y0357250D03*
X0209096Y0357250D03*
X0259404Y0394750D03*
X0266096Y0394750D03*
X0266096Y0402250D03*
X0259404Y0402250D03*
X0259404Y0409750D03*
X0266096Y0409750D03*
X0209096Y0255250D03*
X0202404Y0255250D03*
X0164096Y0205750D03*
X0157404Y0205750D03*
X0157404Y0198250D03*
X0164096Y0198250D03*
X0164096Y0190750D03*
X0157404Y0190750D03*
X0107096Y0255250D03*
X0100404Y0255250D03*
X0259404Y0205750D03*
X0266096Y0205750D03*
X0266096Y0198250D03*
X0259404Y0198250D03*
X0259404Y0190750D03*
X0266096Y0190750D03*
X0361404Y0190750D03*
X0368096Y0190750D03*
X0368096Y0198250D03*
X0361404Y0198250D03*
X0361404Y0205750D03*
X0368096Y0205750D03*
X0368096Y0103750D03*
X0361404Y0103750D03*
X0361404Y0096250D03*
X0368096Y0096250D03*
X0368096Y0088750D03*
X0361404Y0088750D03*
D11*
X0340281Y0089774D03*
X0327219Y0089774D03*
X0327219Y0067726D03*
X0340281Y0067726D03*
X0429219Y0067726D03*
X0442281Y0067726D03*
X0442281Y0089774D03*
X0429219Y0089774D03*
X0531219Y0089774D03*
X0544281Y0089774D03*
X0544281Y0067726D03*
X0531219Y0067726D03*
X0633219Y0067726D03*
X0633219Y0089774D03*
X0633219Y0169726D03*
X0633219Y0191774D03*
X0544281Y0191774D03*
X0531219Y0191774D03*
X0531219Y0169726D03*
X0544281Y0169726D03*
X0442281Y0169726D03*
X0429219Y0169726D03*
X0429219Y0191774D03*
X0442281Y0191774D03*
X0340281Y0191774D03*
X0327219Y0191774D03*
X0327219Y0169726D03*
X0340281Y0169726D03*
X0238281Y0169726D03*
X0225219Y0169726D03*
X0225219Y0191774D03*
X0238281Y0191774D03*
X0136281Y0191774D03*
X0123219Y0191774D03*
X0123219Y0169726D03*
X0136281Y0169726D03*
X0034281Y0169726D03*
X0034281Y0191774D03*
X0034281Y0271726D03*
X0034281Y0293774D03*
X0123219Y0293774D03*
X0136281Y0293774D03*
X0136281Y0271726D03*
X0123219Y0271726D03*
X0225219Y0271726D03*
X0238281Y0271726D03*
X0238281Y0293774D03*
X0225219Y0293774D03*
X0327219Y0293774D03*
X0340281Y0293774D03*
X0340281Y0271726D03*
X0327219Y0271726D03*
X0429219Y0271726D03*
X0442281Y0271726D03*
X0442281Y0293774D03*
X0429219Y0293774D03*
X0531219Y0293774D03*
X0544281Y0293774D03*
X0544281Y0271726D03*
X0531219Y0271726D03*
X0633219Y0271726D03*
X0633219Y0293774D03*
X0633219Y0373726D03*
X0633219Y0395774D03*
X0544281Y0395774D03*
X0531219Y0395774D03*
X0531219Y0373726D03*
X0544281Y0373726D03*
X0442281Y0373726D03*
X0429219Y0373726D03*
X0429219Y0395774D03*
X0442281Y0395774D03*
X0340281Y0395774D03*
X0327219Y0395774D03*
X0327219Y0373726D03*
X0340281Y0373726D03*
X0238281Y0373726D03*
X0225219Y0373726D03*
X0225219Y0395774D03*
X0238281Y0395774D03*
X0136281Y0395774D03*
X0123219Y0395774D03*
X0123219Y0373726D03*
X0136281Y0373726D03*
X0034281Y0373726D03*
X0034281Y0395774D03*
X0034281Y0089774D03*
X0034281Y0067726D03*
X0123219Y0067726D03*
X0136281Y0067726D03*
X0136281Y0089774D03*
X0123219Y0089774D03*
X0225219Y0089774D03*
X0238281Y0089774D03*
X0238281Y0067726D03*
X0225219Y0067726D03*
D12*
X0210750Y0072844D03*
X0210750Y0076781D03*
X0210750Y0080719D03*
X0210750Y0084656D03*
X0252750Y0084656D03*
X0252750Y0080719D03*
X0252750Y0076781D03*
X0252750Y0072844D03*
X0312750Y0072844D03*
X0312750Y0076781D03*
X0312750Y0080719D03*
X0312750Y0084656D03*
X0354750Y0084656D03*
X0354750Y0080719D03*
X0354750Y0076781D03*
X0354750Y0072844D03*
X0414750Y0072844D03*
X0414750Y0076781D03*
X0414750Y0080719D03*
X0414750Y0084656D03*
X0456750Y0084656D03*
X0456750Y0080719D03*
X0456750Y0076781D03*
X0456750Y0072844D03*
X0516750Y0072844D03*
X0516750Y0076781D03*
X0516750Y0080719D03*
X0516750Y0084656D03*
X0558750Y0084656D03*
X0558750Y0080719D03*
X0558750Y0076781D03*
X0558750Y0072844D03*
X0618750Y0072844D03*
X0618750Y0076781D03*
X0618750Y0080719D03*
X0618750Y0084656D03*
X0618750Y0174844D03*
X0618750Y0178781D03*
X0618750Y0182719D03*
X0618750Y0186656D03*
X0558750Y0186656D03*
X0558750Y0182719D03*
X0558750Y0178781D03*
X0558750Y0174844D03*
X0516750Y0174844D03*
X0516750Y0178781D03*
X0516750Y0182719D03*
X0516750Y0186656D03*
X0456750Y0186656D03*
X0456750Y0182719D03*
X0456750Y0178781D03*
X0456750Y0174844D03*
X0414750Y0174844D03*
X0414750Y0178781D03*
X0414750Y0182719D03*
X0414750Y0186656D03*
X0354750Y0186656D03*
X0354750Y0182719D03*
X0354750Y0178781D03*
X0354750Y0174844D03*
X0312750Y0174844D03*
X0312750Y0178781D03*
X0312750Y0182719D03*
X0312750Y0186656D03*
X0252750Y0186656D03*
X0252750Y0182719D03*
X0252750Y0178781D03*
X0252750Y0174844D03*
X0210750Y0174844D03*
X0210750Y0178781D03*
X0210750Y0182719D03*
X0210750Y0186656D03*
X0150750Y0186656D03*
X0150750Y0182719D03*
X0150750Y0178781D03*
X0150750Y0174844D03*
X0108750Y0174844D03*
X0108750Y0178781D03*
X0108750Y0182719D03*
X0108750Y0186656D03*
X0048750Y0186656D03*
X0048750Y0182719D03*
X0048750Y0178781D03*
X0048750Y0174844D03*
X0048750Y0084656D03*
X0048750Y0080719D03*
X0048750Y0076781D03*
X0048750Y0072844D03*
X0108750Y0072844D03*
X0108750Y0076781D03*
X0108750Y0080719D03*
X0108750Y0084656D03*
X0150750Y0084656D03*
X0150750Y0080719D03*
X0150750Y0076781D03*
X0150750Y0072844D03*
X0150750Y0276844D03*
X0150750Y0280781D03*
X0150750Y0284719D03*
X0150750Y0288656D03*
X0108750Y0288656D03*
X0108750Y0284719D03*
X0108750Y0280781D03*
X0108750Y0276844D03*
X0048750Y0276844D03*
X0048750Y0280781D03*
X0048750Y0284719D03*
X0048750Y0288656D03*
X0048750Y0378844D03*
X0048750Y0382781D03*
X0048750Y0386719D03*
X0048750Y0390656D03*
X0108750Y0390656D03*
X0108750Y0386719D03*
X0108750Y0382781D03*
X0108750Y0378844D03*
X0150750Y0378844D03*
X0150750Y0382781D03*
X0150750Y0386719D03*
X0150750Y0390656D03*
X0210750Y0390656D03*
X0210750Y0386719D03*
X0210750Y0382781D03*
X0210750Y0378844D03*
X0252750Y0378844D03*
X0252750Y0382781D03*
X0252750Y0386719D03*
X0252750Y0390656D03*
X0312750Y0390656D03*
X0312750Y0386719D03*
X0312750Y0382781D03*
X0312750Y0378844D03*
X0354750Y0378844D03*
X0354750Y0382781D03*
X0354750Y0386719D03*
X0354750Y0390656D03*
X0414750Y0390656D03*
X0414750Y0386719D03*
X0414750Y0382781D03*
X0414750Y0378844D03*
X0456750Y0378844D03*
X0456750Y0382781D03*
X0456750Y0386719D03*
X0456750Y0390656D03*
X0516750Y0390656D03*
X0516750Y0386719D03*
X0516750Y0382781D03*
X0516750Y0378844D03*
X0558750Y0378844D03*
X0558750Y0382781D03*
X0558750Y0386719D03*
X0558750Y0390656D03*
X0618750Y0390656D03*
X0618750Y0386719D03*
X0618750Y0382781D03*
X0618750Y0378844D03*
X0618750Y0288656D03*
X0618750Y0284719D03*
X0618750Y0280781D03*
X0618750Y0276844D03*
X0558750Y0276844D03*
X0558750Y0280781D03*
X0558750Y0284719D03*
X0558750Y0288656D03*
X0516750Y0288656D03*
X0516750Y0284719D03*
X0516750Y0280781D03*
X0516750Y0276844D03*
X0456750Y0276844D03*
X0456750Y0280781D03*
X0456750Y0284719D03*
X0456750Y0288656D03*
X0414750Y0288656D03*
X0414750Y0284719D03*
X0414750Y0280781D03*
X0414750Y0276844D03*
X0354750Y0276844D03*
X0354750Y0280781D03*
X0354750Y0284719D03*
X0354750Y0288656D03*
X0312750Y0288656D03*
X0312750Y0284719D03*
X0312750Y0280781D03*
X0312750Y0276844D03*
X0252750Y0276844D03*
X0252750Y0280781D03*
X0252750Y0284719D03*
X0252750Y0288656D03*
X0210750Y0288656D03*
X0210750Y0284719D03*
X0210750Y0280781D03*
X0210750Y0276844D03*
D13*
X0048750Y0033750D03*
X0150750Y0033750D03*
X0252750Y0033750D03*
X0354750Y0033750D03*
X0456750Y0033750D03*
X0558750Y0033750D03*
X0531750Y0108750D03*
X0558750Y0135750D03*
X0633750Y0108750D03*
X0633750Y0210750D03*
X0558750Y0237750D03*
X0531750Y0210750D03*
X0456750Y0237750D03*
X0429750Y0210750D03*
X0354750Y0237750D03*
X0327750Y0210750D03*
X0252750Y0237750D03*
X0225750Y0210750D03*
X0150750Y0237750D03*
X0123750Y0210750D03*
X0048750Y0237750D03*
X0123750Y0312750D03*
X0150750Y0339750D03*
X0225750Y0312750D03*
X0252750Y0339750D03*
X0327750Y0312750D03*
X0354750Y0339750D03*
X0429750Y0312750D03*
X0456750Y0339750D03*
X0531750Y0312750D03*
X0558750Y0339750D03*
X0633750Y0312750D03*
X0633750Y0414750D03*
X0531750Y0414750D03*
X0429750Y0414750D03*
X0327750Y0414750D03*
X0225750Y0414750D03*
X0123750Y0414750D03*
X0048750Y0339750D03*
X0048750Y0135750D03*
X0123750Y0108750D03*
X0150750Y0135750D03*
X0225750Y0108750D03*
X0252750Y0135750D03*
X0327750Y0108750D03*
X0354750Y0135750D03*
X0429750Y0108750D03*
X0456750Y0135750D03*
D14*
X0466750Y0123750D03*
X0476750Y0123750D03*
X0486750Y0123750D03*
X0496750Y0123750D03*
X0506750Y0123750D03*
X0568750Y0123750D03*
X0578750Y0123750D03*
X0588750Y0123750D03*
X0598750Y0123750D03*
X0608750Y0123750D03*
X0608750Y0225750D03*
X0598750Y0225750D03*
X0588750Y0225750D03*
X0578750Y0225750D03*
X0568750Y0225750D03*
X0506750Y0225750D03*
X0496750Y0225750D03*
X0486750Y0225750D03*
X0476750Y0225750D03*
X0466750Y0225750D03*
X0404750Y0225750D03*
X0394750Y0225750D03*
X0384750Y0225750D03*
X0374750Y0225750D03*
X0364750Y0225750D03*
X0302750Y0225750D03*
X0292750Y0225750D03*
X0282750Y0225750D03*
X0272750Y0225750D03*
X0262750Y0225750D03*
X0200750Y0225750D03*
X0190750Y0225750D03*
X0180750Y0225750D03*
X0170750Y0225750D03*
X0160750Y0225750D03*
X0098750Y0225750D03*
X0088750Y0225750D03*
X0078750Y0225750D03*
X0068750Y0225750D03*
X0058750Y0225750D03*
X0058750Y0123750D03*
X0068750Y0123750D03*
X0078750Y0123750D03*
X0088750Y0123750D03*
X0098750Y0123750D03*
X0160750Y0123750D03*
X0170750Y0123750D03*
X0180750Y0123750D03*
X0190750Y0123750D03*
X0200750Y0123750D03*
X0262750Y0123750D03*
X0272750Y0123750D03*
X0282750Y0123750D03*
X0292750Y0123750D03*
X0302750Y0123750D03*
X0364750Y0123750D03*
X0374750Y0123750D03*
X0384750Y0123750D03*
X0394750Y0123750D03*
X0404750Y0123750D03*
X0404750Y0327750D03*
X0394750Y0327750D03*
X0384750Y0327750D03*
X0374750Y0327750D03*
X0364750Y0327750D03*
X0302750Y0327750D03*
X0292750Y0327750D03*
X0282750Y0327750D03*
X0272750Y0327750D03*
X0262750Y0327750D03*
X0200750Y0327750D03*
X0190750Y0327750D03*
X0180750Y0327750D03*
X0170750Y0327750D03*
X0160750Y0327750D03*
X0098750Y0327750D03*
X0088750Y0327750D03*
X0078750Y0327750D03*
X0068750Y0327750D03*
X0058750Y0327750D03*
X0058750Y0429750D03*
X0068750Y0429750D03*
X0078750Y0429750D03*
X0088750Y0429750D03*
X0098750Y0429750D03*
X0160750Y0429750D03*
X0170750Y0429750D03*
X0180750Y0429750D03*
X0190750Y0429750D03*
X0200750Y0429750D03*
X0262750Y0429750D03*
X0272750Y0429750D03*
X0282750Y0429750D03*
X0292750Y0429750D03*
X0302750Y0429750D03*
X0364750Y0429750D03*
X0374750Y0429750D03*
X0384750Y0429750D03*
X0394750Y0429750D03*
X0404750Y0429750D03*
X0466750Y0429750D03*
X0476750Y0429750D03*
X0486750Y0429750D03*
X0496750Y0429750D03*
X0506750Y0429750D03*
X0568750Y0429750D03*
X0578750Y0429750D03*
X0588750Y0429750D03*
X0598750Y0429750D03*
X0608750Y0429750D03*
X0608750Y0327750D03*
X0598750Y0327750D03*
X0588750Y0327750D03*
X0578750Y0327750D03*
X0568750Y0327750D03*
X0506750Y0327750D03*
X0496750Y0327750D03*
X0486750Y0327750D03*
X0476750Y0327750D03*
X0466750Y0327750D03*
D15*
X0477695Y0363136D03*
X0479663Y0363136D03*
X0481632Y0363136D03*
X0483600Y0363136D03*
X0485569Y0363136D03*
X0487537Y0363136D03*
X0489506Y0363136D03*
X0491474Y0363136D03*
X0493443Y0363136D03*
X0495411Y0363136D03*
X0579695Y0363136D03*
X0581663Y0363136D03*
X0583632Y0363136D03*
X0585600Y0363136D03*
X0587569Y0363136D03*
X0589537Y0363136D03*
X0591506Y0363136D03*
X0593474Y0363136D03*
X0595443Y0363136D03*
X0597411Y0363136D03*
X0597411Y0261136D03*
X0595443Y0261136D03*
X0593474Y0261136D03*
X0591506Y0261136D03*
X0589537Y0261136D03*
X0587569Y0261136D03*
X0585600Y0261136D03*
X0583632Y0261136D03*
X0581663Y0261136D03*
X0579695Y0261136D03*
X0495411Y0261136D03*
X0493443Y0261136D03*
X0491474Y0261136D03*
X0489506Y0261136D03*
X0487537Y0261136D03*
X0485569Y0261136D03*
X0483600Y0261136D03*
X0481632Y0261136D03*
X0479663Y0261136D03*
X0477695Y0261136D03*
X0393411Y0261136D03*
X0391443Y0261136D03*
X0389474Y0261136D03*
X0387506Y0261136D03*
X0385537Y0261136D03*
X0383569Y0261136D03*
X0381600Y0261136D03*
X0379632Y0261136D03*
X0377663Y0261136D03*
X0375695Y0261136D03*
X0291411Y0261136D03*
X0289443Y0261136D03*
X0287474Y0261136D03*
X0285506Y0261136D03*
X0283537Y0261136D03*
X0281569Y0261136D03*
X0279600Y0261136D03*
X0277632Y0261136D03*
X0275663Y0261136D03*
X0273695Y0261136D03*
X0189411Y0261136D03*
X0187443Y0261136D03*
X0185474Y0261136D03*
X0183506Y0261136D03*
X0181537Y0261136D03*
X0179569Y0261136D03*
X0177600Y0261136D03*
X0175632Y0261136D03*
X0173663Y0261136D03*
X0171695Y0261136D03*
X0087411Y0261136D03*
X0085443Y0261136D03*
X0083474Y0261136D03*
X0081506Y0261136D03*
X0079537Y0261136D03*
X0077569Y0261136D03*
X0075600Y0261136D03*
X0073632Y0261136D03*
X0071663Y0261136D03*
X0069695Y0261136D03*
X0069695Y0159136D03*
X0071663Y0159136D03*
X0073632Y0159136D03*
X0075600Y0159136D03*
X0077569Y0159136D03*
X0079537Y0159136D03*
X0081506Y0159136D03*
X0083474Y0159136D03*
X0085443Y0159136D03*
X0087411Y0159136D03*
X0171695Y0159136D03*
X0173663Y0159136D03*
X0175632Y0159136D03*
X0177600Y0159136D03*
X0179569Y0159136D03*
X0181537Y0159136D03*
X0183506Y0159136D03*
X0185474Y0159136D03*
X0187443Y0159136D03*
X0189411Y0159136D03*
X0273695Y0159136D03*
X0275663Y0159136D03*
X0277632Y0159136D03*
X0279600Y0159136D03*
X0281569Y0159136D03*
X0283537Y0159136D03*
X0285506Y0159136D03*
X0287474Y0159136D03*
X0289443Y0159136D03*
X0291411Y0159136D03*
X0375695Y0159136D03*
X0377663Y0159136D03*
X0379632Y0159136D03*
X0381600Y0159136D03*
X0383569Y0159136D03*
X0385537Y0159136D03*
X0387506Y0159136D03*
X0389474Y0159136D03*
X0391443Y0159136D03*
X0393411Y0159136D03*
X0477695Y0159136D03*
X0479663Y0159136D03*
X0481632Y0159136D03*
X0483600Y0159136D03*
X0485569Y0159136D03*
X0487537Y0159136D03*
X0489506Y0159136D03*
X0491474Y0159136D03*
X0493443Y0159136D03*
X0495411Y0159136D03*
X0579695Y0159136D03*
X0581663Y0159136D03*
X0583632Y0159136D03*
X0585600Y0159136D03*
X0587569Y0159136D03*
X0589537Y0159136D03*
X0591506Y0159136D03*
X0593474Y0159136D03*
X0595443Y0159136D03*
X0597411Y0159136D03*
X0597411Y0057136D03*
X0595443Y0057136D03*
X0593474Y0057136D03*
X0591506Y0057136D03*
X0589537Y0057136D03*
X0587569Y0057136D03*
X0585600Y0057136D03*
X0583632Y0057136D03*
X0581663Y0057136D03*
X0579695Y0057136D03*
X0495411Y0057136D03*
X0493443Y0057136D03*
X0491474Y0057136D03*
X0489506Y0057136D03*
X0487537Y0057136D03*
X0485569Y0057136D03*
X0483600Y0057136D03*
X0481632Y0057136D03*
X0479663Y0057136D03*
X0477695Y0057136D03*
X0393411Y0057136D03*
X0391443Y0057136D03*
X0389474Y0057136D03*
X0387506Y0057136D03*
X0385537Y0057136D03*
X0383569Y0057136D03*
X0381600Y0057136D03*
X0379632Y0057136D03*
X0377663Y0057136D03*
X0375695Y0057136D03*
X0291411Y0057136D03*
X0289443Y0057136D03*
X0287474Y0057136D03*
X0285506Y0057136D03*
X0283537Y0057136D03*
X0281569Y0057136D03*
X0279600Y0057136D03*
X0277632Y0057136D03*
X0275663Y0057136D03*
X0273695Y0057136D03*
X0189411Y0057136D03*
X0187443Y0057136D03*
X0185474Y0057136D03*
X0183506Y0057136D03*
X0181537Y0057136D03*
X0179569Y0057136D03*
X0177600Y0057136D03*
X0175632Y0057136D03*
X0173663Y0057136D03*
X0171695Y0057136D03*
X0087411Y0057136D03*
X0085443Y0057136D03*
X0083474Y0057136D03*
X0081506Y0057136D03*
X0079537Y0057136D03*
X0077569Y0057136D03*
X0075600Y0057136D03*
X0073632Y0057136D03*
X0071663Y0057136D03*
X0069695Y0057136D03*
X0069695Y0363136D03*
X0071663Y0363136D03*
X0073632Y0363136D03*
X0075600Y0363136D03*
X0077569Y0363136D03*
X0079537Y0363136D03*
X0081506Y0363136D03*
X0083474Y0363136D03*
X0085443Y0363136D03*
X0087411Y0363136D03*
X0171695Y0363136D03*
X0173663Y0363136D03*
X0175632Y0363136D03*
X0177600Y0363136D03*
X0179569Y0363136D03*
X0181537Y0363136D03*
X0183506Y0363136D03*
X0185474Y0363136D03*
X0187443Y0363136D03*
X0189411Y0363136D03*
X0273695Y0363136D03*
X0275663Y0363136D03*
X0277632Y0363136D03*
X0279600Y0363136D03*
X0281569Y0363136D03*
X0283537Y0363136D03*
X0285506Y0363136D03*
X0287474Y0363136D03*
X0289443Y0363136D03*
X0291411Y0363136D03*
X0375695Y0363136D03*
X0377663Y0363136D03*
X0379632Y0363136D03*
X0381600Y0363136D03*
X0383569Y0363136D03*
X0385537Y0363136D03*
X0387506Y0363136D03*
X0389474Y0363136D03*
X0391443Y0363136D03*
X0393411Y0363136D03*
D16*
X0401679Y0340695D03*
X0367427Y0340695D03*
X0299679Y0340695D03*
X0265427Y0340695D03*
X0197679Y0340695D03*
X0163427Y0340695D03*
X0095679Y0340695D03*
X0061427Y0340695D03*
X0061427Y0238695D03*
X0095679Y0238695D03*
X0163427Y0238695D03*
X0197679Y0238695D03*
X0265427Y0238695D03*
X0299679Y0238695D03*
X0367427Y0238695D03*
X0401679Y0238695D03*
X0469427Y0238695D03*
X0503679Y0238695D03*
X0571427Y0238695D03*
X0605679Y0238695D03*
X0605679Y0340695D03*
X0571427Y0340695D03*
X0503679Y0340695D03*
X0469427Y0340695D03*
X0469427Y0136695D03*
X0503679Y0136695D03*
X0571427Y0136695D03*
X0605679Y0136695D03*
X0605679Y0034695D03*
X0571427Y0034695D03*
X0503679Y0034695D03*
X0469427Y0034695D03*
X0401679Y0034695D03*
X0367427Y0034695D03*
X0299679Y0034695D03*
X0265427Y0034695D03*
X0197679Y0034695D03*
X0163427Y0034695D03*
X0095679Y0034695D03*
X0061427Y0034695D03*
X0061427Y0136695D03*
X0095679Y0136695D03*
X0163427Y0136695D03*
X0197679Y0136695D03*
X0265427Y0136695D03*
X0299679Y0136695D03*
X0367427Y0136695D03*
X0401679Y0136695D03*
D17*
X0446007Y0106017D02*
X0448753Y0106017D01*
X0448753Y0103271D01*
X0446007Y0103271D01*
X0446007Y0106017D01*
X0446007Y0105161D02*
X0448753Y0105161D01*
X0448753Y0099111D02*
X0446007Y0099111D01*
X0448753Y0099111D02*
X0448753Y0096365D01*
X0446007Y0096365D01*
X0446007Y0099111D01*
X0446007Y0098255D02*
X0448753Y0098255D01*
X0548007Y0099111D02*
X0550753Y0099111D01*
X0550753Y0096365D01*
X0548007Y0096365D01*
X0548007Y0099111D01*
X0548007Y0098255D02*
X0550753Y0098255D01*
X0550753Y0106017D02*
X0548007Y0106017D01*
X0550753Y0106017D02*
X0550753Y0103271D01*
X0548007Y0103271D01*
X0548007Y0106017D01*
X0548007Y0105161D02*
X0550753Y0105161D01*
X0550753Y0201111D02*
X0548007Y0201111D01*
X0550753Y0201111D02*
X0550753Y0198365D01*
X0548007Y0198365D01*
X0548007Y0201111D01*
X0548007Y0200255D02*
X0550753Y0200255D01*
X0550753Y0208017D02*
X0548007Y0208017D01*
X0550753Y0208017D02*
X0550753Y0205271D01*
X0548007Y0205271D01*
X0548007Y0208017D01*
X0548007Y0207161D02*
X0550753Y0207161D01*
X0448753Y0208017D02*
X0446007Y0208017D01*
X0448753Y0208017D02*
X0448753Y0205271D01*
X0446007Y0205271D01*
X0446007Y0208017D01*
X0446007Y0207161D02*
X0448753Y0207161D01*
X0448753Y0201111D02*
X0446007Y0201111D01*
X0448753Y0201111D02*
X0448753Y0198365D01*
X0446007Y0198365D01*
X0446007Y0201111D01*
X0446007Y0200255D02*
X0448753Y0200255D01*
X0346753Y0201111D02*
X0344007Y0201111D01*
X0346753Y0201111D02*
X0346753Y0198365D01*
X0344007Y0198365D01*
X0344007Y0201111D01*
X0344007Y0200255D02*
X0346753Y0200255D01*
X0346753Y0208017D02*
X0344007Y0208017D01*
X0346753Y0208017D02*
X0346753Y0205271D01*
X0344007Y0205271D01*
X0344007Y0208017D01*
X0344007Y0207161D02*
X0346753Y0207161D01*
X0244753Y0208017D02*
X0242007Y0208017D01*
X0244753Y0208017D02*
X0244753Y0205271D01*
X0242007Y0205271D01*
X0242007Y0208017D01*
X0242007Y0207161D02*
X0244753Y0207161D01*
X0244753Y0201111D02*
X0242007Y0201111D01*
X0244753Y0201111D02*
X0244753Y0198365D01*
X0242007Y0198365D01*
X0242007Y0201111D01*
X0242007Y0200255D02*
X0244753Y0200255D01*
X0142753Y0201111D02*
X0140007Y0201111D01*
X0142753Y0201111D02*
X0142753Y0198365D01*
X0140007Y0198365D01*
X0140007Y0201111D01*
X0140007Y0200255D02*
X0142753Y0200255D01*
X0142753Y0208017D02*
X0140007Y0208017D01*
X0142753Y0208017D02*
X0142753Y0205271D01*
X0140007Y0205271D01*
X0140007Y0208017D01*
X0140007Y0207161D02*
X0142753Y0207161D01*
X0040753Y0208017D02*
X0038007Y0208017D01*
X0040753Y0208017D02*
X0040753Y0205271D01*
X0038007Y0205271D01*
X0038007Y0208017D01*
X0038007Y0207161D02*
X0040753Y0207161D01*
X0040753Y0201111D02*
X0038007Y0201111D01*
X0040753Y0201111D02*
X0040753Y0198365D01*
X0038007Y0198365D01*
X0038007Y0201111D01*
X0038007Y0200255D02*
X0040753Y0200255D01*
X0040753Y0106017D02*
X0038007Y0106017D01*
X0040753Y0106017D02*
X0040753Y0103271D01*
X0038007Y0103271D01*
X0038007Y0106017D01*
X0038007Y0105161D02*
X0040753Y0105161D01*
X0040753Y0099111D02*
X0038007Y0099111D01*
X0040753Y0099111D02*
X0040753Y0096365D01*
X0038007Y0096365D01*
X0038007Y0099111D01*
X0038007Y0098255D02*
X0040753Y0098255D01*
X0140007Y0099111D02*
X0142753Y0099111D01*
X0142753Y0096365D01*
X0140007Y0096365D01*
X0140007Y0099111D01*
X0140007Y0098255D02*
X0142753Y0098255D01*
X0142753Y0106017D02*
X0140007Y0106017D01*
X0142753Y0106017D02*
X0142753Y0103271D01*
X0140007Y0103271D01*
X0140007Y0106017D01*
X0140007Y0105161D02*
X0142753Y0105161D01*
X0242007Y0106017D02*
X0244753Y0106017D01*
X0244753Y0103271D01*
X0242007Y0103271D01*
X0242007Y0106017D01*
X0242007Y0105161D02*
X0244753Y0105161D01*
X0244753Y0099111D02*
X0242007Y0099111D01*
X0244753Y0099111D02*
X0244753Y0096365D01*
X0242007Y0096365D01*
X0242007Y0099111D01*
X0242007Y0098255D02*
X0244753Y0098255D01*
X0344007Y0099111D02*
X0346753Y0099111D01*
X0346753Y0096365D01*
X0344007Y0096365D01*
X0344007Y0099111D01*
X0344007Y0098255D02*
X0346753Y0098255D01*
X0346753Y0106017D02*
X0344007Y0106017D01*
X0346753Y0106017D02*
X0346753Y0103271D01*
X0344007Y0103271D01*
X0344007Y0106017D01*
X0344007Y0105161D02*
X0346753Y0105161D01*
X0346753Y0303111D02*
X0344007Y0303111D01*
X0346753Y0303111D02*
X0346753Y0300365D01*
X0344007Y0300365D01*
X0344007Y0303111D01*
X0344007Y0302255D02*
X0346753Y0302255D01*
X0346753Y0310017D02*
X0344007Y0310017D01*
X0346753Y0310017D02*
X0346753Y0307271D01*
X0344007Y0307271D01*
X0344007Y0310017D01*
X0344007Y0309161D02*
X0346753Y0309161D01*
X0446007Y0310017D02*
X0448753Y0310017D01*
X0448753Y0307271D01*
X0446007Y0307271D01*
X0446007Y0310017D01*
X0446007Y0309161D02*
X0448753Y0309161D01*
X0448753Y0303111D02*
X0446007Y0303111D01*
X0448753Y0303111D02*
X0448753Y0300365D01*
X0446007Y0300365D01*
X0446007Y0303111D01*
X0446007Y0302255D02*
X0448753Y0302255D01*
X0548007Y0303111D02*
X0550753Y0303111D01*
X0550753Y0300365D01*
X0548007Y0300365D01*
X0548007Y0303111D01*
X0548007Y0302255D02*
X0550753Y0302255D01*
X0550753Y0310017D02*
X0548007Y0310017D01*
X0550753Y0310017D02*
X0550753Y0307271D01*
X0548007Y0307271D01*
X0548007Y0310017D01*
X0548007Y0309161D02*
X0550753Y0309161D01*
X0550753Y0405111D02*
X0548007Y0405111D01*
X0550753Y0405111D02*
X0550753Y0402365D01*
X0548007Y0402365D01*
X0548007Y0405111D01*
X0548007Y0404255D02*
X0550753Y0404255D01*
X0550753Y0412017D02*
X0548007Y0412017D01*
X0550753Y0412017D02*
X0550753Y0409271D01*
X0548007Y0409271D01*
X0548007Y0412017D01*
X0548007Y0411161D02*
X0550753Y0411161D01*
X0448753Y0412017D02*
X0446007Y0412017D01*
X0448753Y0412017D02*
X0448753Y0409271D01*
X0446007Y0409271D01*
X0446007Y0412017D01*
X0446007Y0411161D02*
X0448753Y0411161D01*
X0448753Y0405111D02*
X0446007Y0405111D01*
X0448753Y0405111D02*
X0448753Y0402365D01*
X0446007Y0402365D01*
X0446007Y0405111D01*
X0446007Y0404255D02*
X0448753Y0404255D01*
X0346753Y0405111D02*
X0344007Y0405111D01*
X0346753Y0405111D02*
X0346753Y0402365D01*
X0344007Y0402365D01*
X0344007Y0405111D01*
X0344007Y0404255D02*
X0346753Y0404255D01*
X0346753Y0412017D02*
X0344007Y0412017D01*
X0346753Y0412017D02*
X0346753Y0409271D01*
X0344007Y0409271D01*
X0344007Y0412017D01*
X0344007Y0411161D02*
X0346753Y0411161D01*
X0244753Y0412017D02*
X0242007Y0412017D01*
X0244753Y0412017D02*
X0244753Y0409271D01*
X0242007Y0409271D01*
X0242007Y0412017D01*
X0242007Y0411161D02*
X0244753Y0411161D01*
X0244753Y0405111D02*
X0242007Y0405111D01*
X0244753Y0405111D02*
X0244753Y0402365D01*
X0242007Y0402365D01*
X0242007Y0405111D01*
X0242007Y0404255D02*
X0244753Y0404255D01*
X0142753Y0405111D02*
X0140007Y0405111D01*
X0142753Y0405111D02*
X0142753Y0402365D01*
X0140007Y0402365D01*
X0140007Y0405111D01*
X0140007Y0404255D02*
X0142753Y0404255D01*
X0142753Y0412017D02*
X0140007Y0412017D01*
X0142753Y0412017D02*
X0142753Y0409271D01*
X0140007Y0409271D01*
X0140007Y0412017D01*
X0140007Y0411161D02*
X0142753Y0411161D01*
X0040753Y0412017D02*
X0038007Y0412017D01*
X0040753Y0412017D02*
X0040753Y0409271D01*
X0038007Y0409271D01*
X0038007Y0412017D01*
X0038007Y0411161D02*
X0040753Y0411161D01*
X0040753Y0405111D02*
X0038007Y0405111D01*
X0040753Y0405111D02*
X0040753Y0402365D01*
X0038007Y0402365D01*
X0038007Y0405111D01*
X0038007Y0404255D02*
X0040753Y0404255D01*
X0040753Y0310017D02*
X0038007Y0310017D01*
X0040753Y0310017D02*
X0040753Y0307271D01*
X0038007Y0307271D01*
X0038007Y0310017D01*
X0038007Y0309161D02*
X0040753Y0309161D01*
X0040753Y0303111D02*
X0038007Y0303111D01*
X0040753Y0303111D02*
X0040753Y0300365D01*
X0038007Y0300365D01*
X0038007Y0303111D01*
X0038007Y0302255D02*
X0040753Y0302255D01*
X0140007Y0303111D02*
X0142753Y0303111D01*
X0142753Y0300365D01*
X0140007Y0300365D01*
X0140007Y0303111D01*
X0140007Y0302255D02*
X0142753Y0302255D01*
X0142753Y0310017D02*
X0140007Y0310017D01*
X0142753Y0310017D02*
X0142753Y0307271D01*
X0140007Y0307271D01*
X0140007Y0310017D01*
X0140007Y0309161D02*
X0142753Y0309161D01*
X0242007Y0310017D02*
X0244753Y0310017D01*
X0244753Y0307271D01*
X0242007Y0307271D01*
X0242007Y0310017D01*
X0242007Y0309161D02*
X0244753Y0309161D01*
X0244753Y0303111D02*
X0242007Y0303111D01*
X0244753Y0303111D02*
X0244753Y0300365D01*
X0242007Y0300365D01*
X0242007Y0303111D01*
X0242007Y0302255D02*
X0244753Y0302255D01*
D18*
X0237474Y0301844D03*
X0237474Y0308537D03*
X0339474Y0308537D03*
X0339474Y0301844D03*
X0441474Y0301844D03*
X0441474Y0308537D03*
X0543474Y0308537D03*
X0543474Y0301844D03*
X0543474Y0206537D03*
X0543474Y0199844D03*
X0441474Y0199844D03*
X0441474Y0206537D03*
X0339474Y0206537D03*
X0339474Y0199844D03*
X0237474Y0199844D03*
X0237474Y0206537D03*
X0135474Y0206537D03*
X0135474Y0199844D03*
X0033474Y0199844D03*
X0033474Y0206537D03*
X0033474Y0301844D03*
X0033474Y0308537D03*
X0135474Y0308537D03*
X0135474Y0301844D03*
X0135474Y0403844D03*
X0135474Y0410537D03*
X0033474Y0410537D03*
X0033474Y0403844D03*
X0237474Y0403844D03*
X0237474Y0410537D03*
X0339474Y0410537D03*
X0339474Y0403844D03*
X0441474Y0403844D03*
X0441474Y0410537D03*
X0543474Y0410537D03*
X0543474Y0403844D03*
X0543474Y0104537D03*
X0543474Y0097844D03*
X0441474Y0097844D03*
X0441474Y0104537D03*
X0339474Y0104537D03*
X0339474Y0097844D03*
X0237474Y0097844D03*
X0237474Y0104537D03*
X0135474Y0104537D03*
X0135474Y0097844D03*
X0033474Y0097844D03*
X0033474Y0104537D03*
D19*
X0075010Y0101369D03*
X0078750Y0101369D03*
X0082490Y0101369D03*
X0082490Y0091131D03*
X0075010Y0091131D03*
X0177010Y0091131D03*
X0184490Y0091131D03*
X0184490Y0101369D03*
X0180750Y0101369D03*
X0177010Y0101369D03*
X0279010Y0101369D03*
X0282750Y0101369D03*
X0286490Y0101369D03*
X0286490Y0091131D03*
X0279010Y0091131D03*
X0381010Y0091131D03*
X0388490Y0091131D03*
X0388490Y0101369D03*
X0384750Y0101369D03*
X0381010Y0101369D03*
X0483010Y0101369D03*
X0486750Y0101369D03*
X0490490Y0101369D03*
X0490490Y0091131D03*
X0483010Y0091131D03*
X0585010Y0091131D03*
X0592490Y0091131D03*
X0592490Y0101369D03*
X0588750Y0101369D03*
X0585010Y0101369D03*
X0585010Y0193131D03*
X0592490Y0193131D03*
X0592490Y0203369D03*
X0588750Y0203369D03*
X0585010Y0203369D03*
X0490490Y0203369D03*
X0486750Y0203369D03*
X0483010Y0203369D03*
X0483010Y0193131D03*
X0490490Y0193131D03*
X0388490Y0193131D03*
X0381010Y0193131D03*
X0381010Y0203369D03*
X0384750Y0203369D03*
X0388490Y0203369D03*
X0286490Y0203369D03*
X0282750Y0203369D03*
X0279010Y0203369D03*
X0279010Y0193131D03*
X0286490Y0193131D03*
X0184490Y0193131D03*
X0177010Y0193131D03*
X0177010Y0203369D03*
X0180750Y0203369D03*
X0184490Y0203369D03*
X0082490Y0203369D03*
X0078750Y0203369D03*
X0075010Y0203369D03*
X0075010Y0193131D03*
X0082490Y0193131D03*
X0082490Y0295131D03*
X0075010Y0295131D03*
X0075010Y0305369D03*
X0078750Y0305369D03*
X0082490Y0305369D03*
X0177010Y0305369D03*
X0180750Y0305369D03*
X0184490Y0305369D03*
X0184490Y0295131D03*
X0177010Y0295131D03*
X0279010Y0295131D03*
X0286490Y0295131D03*
X0286490Y0305369D03*
X0282750Y0305369D03*
X0279010Y0305369D03*
X0381010Y0305369D03*
X0384750Y0305369D03*
X0388490Y0305369D03*
X0388490Y0295131D03*
X0381010Y0295131D03*
X0483010Y0295131D03*
X0490490Y0295131D03*
X0490490Y0305369D03*
X0486750Y0305369D03*
X0483010Y0305369D03*
X0585010Y0305369D03*
X0588750Y0305369D03*
X0592490Y0305369D03*
X0592490Y0295131D03*
X0585010Y0295131D03*
X0585010Y0397131D03*
X0592490Y0397131D03*
X0592490Y0407369D03*
X0588750Y0407369D03*
X0585010Y0407369D03*
X0490490Y0407369D03*
X0486750Y0407369D03*
X0483010Y0407369D03*
X0483010Y0397131D03*
X0490490Y0397131D03*
X0388490Y0397131D03*
X0381010Y0397131D03*
X0381010Y0407369D03*
X0384750Y0407369D03*
X0388490Y0407369D03*
X0286490Y0407369D03*
X0282750Y0407369D03*
X0279010Y0407369D03*
X0279010Y0397131D03*
X0286490Y0397131D03*
X0184490Y0397131D03*
X0177010Y0397131D03*
X0177010Y0407369D03*
X0180750Y0407369D03*
X0184490Y0407369D03*
X0082490Y0407369D03*
X0078750Y0407369D03*
X0075010Y0407369D03*
X0075010Y0397131D03*
X0082490Y0397131D03*
D20*
X0094222Y0387250D03*
X0103278Y0387250D03*
X0196222Y0387250D03*
X0205278Y0387250D03*
X0298222Y0387250D03*
X0307278Y0387250D03*
X0400222Y0387250D03*
X0409278Y0387250D03*
X0502222Y0387250D03*
X0511278Y0387250D03*
X0604222Y0387250D03*
X0613278Y0387250D03*
X0613278Y0285250D03*
X0604222Y0285250D03*
X0511278Y0285250D03*
X0502222Y0285250D03*
X0409278Y0285250D03*
X0400222Y0285250D03*
X0307278Y0285250D03*
X0298222Y0285250D03*
X0205278Y0285250D03*
X0196222Y0285250D03*
X0103278Y0285250D03*
X0094222Y0285250D03*
X0094222Y0183250D03*
X0103278Y0183250D03*
X0196222Y0183250D03*
X0205278Y0183250D03*
X0298222Y0183250D03*
X0307278Y0183250D03*
X0400222Y0183250D03*
X0409278Y0183250D03*
X0502222Y0183250D03*
X0511278Y0183250D03*
X0604222Y0183250D03*
X0613278Y0183250D03*
X0613278Y0081250D03*
X0604222Y0081250D03*
X0511278Y0081250D03*
X0502222Y0081250D03*
X0409278Y0081250D03*
X0400222Y0081250D03*
X0307278Y0081250D03*
X0298222Y0081250D03*
X0205278Y0081250D03*
X0196222Y0081250D03*
X0103278Y0081250D03*
X0094222Y0081250D03*
D21*
X0098750Y0090344D03*
X0098750Y0102156D03*
X0200750Y0102156D03*
X0200750Y0090344D03*
X0302750Y0090344D03*
X0302750Y0102156D03*
X0404750Y0102156D03*
X0404750Y0090344D03*
X0506750Y0090344D03*
X0506750Y0102156D03*
X0608750Y0102156D03*
X0608750Y0090344D03*
X0608750Y0192344D03*
X0608750Y0204156D03*
X0506750Y0204156D03*
X0506750Y0192344D03*
X0404750Y0192344D03*
X0404750Y0204156D03*
X0302750Y0204156D03*
X0302750Y0192344D03*
X0200750Y0192344D03*
X0200750Y0204156D03*
X0098750Y0204156D03*
X0098750Y0192344D03*
X0098750Y0294344D03*
X0098750Y0306156D03*
X0200750Y0306156D03*
X0200750Y0294344D03*
X0302750Y0294344D03*
X0302750Y0306156D03*
X0404750Y0306156D03*
X0404750Y0294344D03*
X0506750Y0294344D03*
X0506750Y0306156D03*
X0608750Y0306156D03*
X0608750Y0294344D03*
X0608750Y0396344D03*
X0608750Y0408156D03*
X0506750Y0408156D03*
X0506750Y0396344D03*
X0404750Y0396344D03*
X0404750Y0408156D03*
X0302750Y0408156D03*
X0302750Y0396344D03*
X0200750Y0396344D03*
X0200750Y0408156D03*
X0098750Y0408156D03*
X0098750Y0396344D03*
D22*
X0118750Y0424750D03*
X0140750Y0424750D03*
X0220750Y0424750D03*
X0242750Y0424750D03*
X0322750Y0424750D03*
X0344750Y0424750D03*
X0424750Y0424750D03*
X0446750Y0424750D03*
X0526750Y0424750D03*
X0548750Y0424750D03*
X0628750Y0424750D03*
X0628750Y0344750D03*
X0628750Y0322750D03*
X0548750Y0322750D03*
X0526750Y0322750D03*
X0526750Y0344750D03*
X0548750Y0344750D03*
X0446750Y0344750D03*
X0424750Y0344750D03*
X0424750Y0322750D03*
X0446750Y0322750D03*
X0344750Y0322750D03*
X0322750Y0322750D03*
X0322750Y0344750D03*
X0344750Y0344750D03*
X0242750Y0344750D03*
X0220750Y0344750D03*
X0220750Y0322750D03*
X0242750Y0322750D03*
X0140750Y0322750D03*
X0118750Y0322750D03*
X0118750Y0344750D03*
X0140750Y0344750D03*
X0038750Y0344750D03*
X0038750Y0322750D03*
X0038750Y0242750D03*
X0038750Y0220750D03*
X0118750Y0220750D03*
X0140750Y0220750D03*
X0140750Y0242750D03*
X0118750Y0242750D03*
X0220750Y0242750D03*
X0242750Y0242750D03*
X0242750Y0220750D03*
X0220750Y0220750D03*
X0322750Y0220750D03*
X0344750Y0220750D03*
X0344750Y0242750D03*
X0322750Y0242750D03*
X0424750Y0242750D03*
X0446750Y0242750D03*
X0446750Y0220750D03*
X0424750Y0220750D03*
X0526750Y0220750D03*
X0548750Y0220750D03*
X0548750Y0242750D03*
X0526750Y0242750D03*
X0628750Y0242750D03*
X0628750Y0220750D03*
X0628750Y0140750D03*
X0628750Y0118750D03*
X0548750Y0118750D03*
X0526750Y0118750D03*
X0526750Y0140750D03*
X0548750Y0140750D03*
X0446750Y0140750D03*
X0424750Y0140750D03*
X0424750Y0118750D03*
X0446750Y0118750D03*
X0344750Y0118750D03*
X0322750Y0118750D03*
X0322750Y0140750D03*
X0344750Y0140750D03*
X0242750Y0140750D03*
X0220750Y0140750D03*
X0220750Y0118750D03*
X0242750Y0118750D03*
X0140750Y0118750D03*
X0118750Y0118750D03*
X0118750Y0140750D03*
X0140750Y0140750D03*
X0038750Y0140750D03*
X0038750Y0118750D03*
X0038750Y0038750D03*
X0118750Y0038750D03*
X0140750Y0038750D03*
X0220750Y0038750D03*
X0242750Y0038750D03*
X0322750Y0038750D03*
X0344750Y0038750D03*
X0424750Y0038750D03*
X0446750Y0038750D03*
X0526750Y0038750D03*
X0548750Y0038750D03*
X0628750Y0038750D03*
X0038750Y0424750D03*
D23*
X0075207Y0389750D03*
X0082293Y0389750D03*
X0177207Y0389750D03*
X0184293Y0389750D03*
X0279207Y0389750D03*
X0286293Y0389750D03*
X0381207Y0389750D03*
X0388293Y0389750D03*
X0483207Y0389750D03*
X0490293Y0389750D03*
X0585207Y0389750D03*
X0592293Y0389750D03*
X0592293Y0287750D03*
X0585207Y0287750D03*
X0490293Y0287750D03*
X0483207Y0287750D03*
X0388293Y0287750D03*
X0381207Y0287750D03*
X0286293Y0287750D03*
X0279207Y0287750D03*
X0184293Y0287750D03*
X0177207Y0287750D03*
X0082293Y0287750D03*
X0075207Y0287750D03*
X0075207Y0185750D03*
X0082293Y0185750D03*
X0177207Y0185750D03*
X0184293Y0185750D03*
X0279207Y0185750D03*
X0286293Y0185750D03*
X0381207Y0185750D03*
X0388293Y0185750D03*
X0483207Y0185750D03*
X0490293Y0185750D03*
X0585207Y0185750D03*
X0592293Y0185750D03*
X0592293Y0083750D03*
X0585207Y0083750D03*
X0490293Y0083750D03*
X0483207Y0083750D03*
X0388293Y0083750D03*
X0381207Y0083750D03*
X0286293Y0083750D03*
X0279207Y0083750D03*
X0184293Y0083750D03*
X0177207Y0083750D03*
X0082293Y0083750D03*
X0075207Y0083750D03*
D24*
X0055750Y0443000D03*
X0611750Y0443000D03*
D25*
X0052185Y0020500D02*
X0052187Y0020619D01*
X0052193Y0020738D01*
X0052203Y0020857D01*
X0052217Y0020975D01*
X0052235Y0021093D01*
X0052256Y0021210D01*
X0052282Y0021326D01*
X0052312Y0021442D01*
X0052345Y0021556D01*
X0052382Y0021669D01*
X0052423Y0021781D01*
X0052468Y0021892D01*
X0052516Y0022001D01*
X0052568Y0022108D01*
X0052624Y0022213D01*
X0052683Y0022317D01*
X0052745Y0022418D01*
X0052811Y0022518D01*
X0052880Y0022615D01*
X0052952Y0022709D01*
X0053028Y0022802D01*
X0053106Y0022891D01*
X0053187Y0022978D01*
X0053272Y0023063D01*
X0053359Y0023144D01*
X0053448Y0023222D01*
X0053541Y0023298D01*
X0053635Y0023370D01*
X0053732Y0023439D01*
X0053832Y0023505D01*
X0053933Y0023567D01*
X0054037Y0023626D01*
X0054142Y0023682D01*
X0054249Y0023734D01*
X0054358Y0023782D01*
X0054469Y0023827D01*
X0054581Y0023868D01*
X0054694Y0023905D01*
X0054808Y0023938D01*
X0054924Y0023968D01*
X0055040Y0023994D01*
X0055157Y0024015D01*
X0055275Y0024033D01*
X0055393Y0024047D01*
X0055512Y0024057D01*
X0055631Y0024063D01*
X0055750Y0024065D01*
X0055869Y0024063D01*
X0055988Y0024057D01*
X0056107Y0024047D01*
X0056225Y0024033D01*
X0056343Y0024015D01*
X0056460Y0023994D01*
X0056576Y0023968D01*
X0056692Y0023938D01*
X0056806Y0023905D01*
X0056919Y0023868D01*
X0057031Y0023827D01*
X0057142Y0023782D01*
X0057251Y0023734D01*
X0057358Y0023682D01*
X0057463Y0023626D01*
X0057567Y0023567D01*
X0057668Y0023505D01*
X0057768Y0023439D01*
X0057865Y0023370D01*
X0057959Y0023298D01*
X0058052Y0023222D01*
X0058141Y0023144D01*
X0058228Y0023063D01*
X0058313Y0022978D01*
X0058394Y0022891D01*
X0058472Y0022802D01*
X0058548Y0022709D01*
X0058620Y0022615D01*
X0058689Y0022518D01*
X0058755Y0022418D01*
X0058817Y0022317D01*
X0058876Y0022213D01*
X0058932Y0022108D01*
X0058984Y0022001D01*
X0059032Y0021892D01*
X0059077Y0021781D01*
X0059118Y0021669D01*
X0059155Y0021556D01*
X0059188Y0021442D01*
X0059218Y0021326D01*
X0059244Y0021210D01*
X0059265Y0021093D01*
X0059283Y0020975D01*
X0059297Y0020857D01*
X0059307Y0020738D01*
X0059313Y0020619D01*
X0059315Y0020500D01*
X0059313Y0020381D01*
X0059307Y0020262D01*
X0059297Y0020143D01*
X0059283Y0020025D01*
X0059265Y0019907D01*
X0059244Y0019790D01*
X0059218Y0019674D01*
X0059188Y0019558D01*
X0059155Y0019444D01*
X0059118Y0019331D01*
X0059077Y0019219D01*
X0059032Y0019108D01*
X0058984Y0018999D01*
X0058932Y0018892D01*
X0058876Y0018787D01*
X0058817Y0018683D01*
X0058755Y0018582D01*
X0058689Y0018482D01*
X0058620Y0018385D01*
X0058548Y0018291D01*
X0058472Y0018198D01*
X0058394Y0018109D01*
X0058313Y0018022D01*
X0058228Y0017937D01*
X0058141Y0017856D01*
X0058052Y0017778D01*
X0057959Y0017702D01*
X0057865Y0017630D01*
X0057768Y0017561D01*
X0057668Y0017495D01*
X0057567Y0017433D01*
X0057463Y0017374D01*
X0057358Y0017318D01*
X0057251Y0017266D01*
X0057142Y0017218D01*
X0057031Y0017173D01*
X0056919Y0017132D01*
X0056806Y0017095D01*
X0056692Y0017062D01*
X0056576Y0017032D01*
X0056460Y0017006D01*
X0056343Y0016985D01*
X0056225Y0016967D01*
X0056107Y0016953D01*
X0055988Y0016943D01*
X0055869Y0016937D01*
X0055750Y0016935D01*
X0055631Y0016937D01*
X0055512Y0016943D01*
X0055393Y0016953D01*
X0055275Y0016967D01*
X0055157Y0016985D01*
X0055040Y0017006D01*
X0054924Y0017032D01*
X0054808Y0017062D01*
X0054694Y0017095D01*
X0054581Y0017132D01*
X0054469Y0017173D01*
X0054358Y0017218D01*
X0054249Y0017266D01*
X0054142Y0017318D01*
X0054037Y0017374D01*
X0053933Y0017433D01*
X0053832Y0017495D01*
X0053732Y0017561D01*
X0053635Y0017630D01*
X0053541Y0017702D01*
X0053448Y0017778D01*
X0053359Y0017856D01*
X0053272Y0017937D01*
X0053187Y0018022D01*
X0053106Y0018109D01*
X0053028Y0018198D01*
X0052952Y0018291D01*
X0052880Y0018385D01*
X0052811Y0018482D01*
X0052745Y0018582D01*
X0052683Y0018683D01*
X0052624Y0018787D01*
X0052568Y0018892D01*
X0052516Y0018999D01*
X0052468Y0019108D01*
X0052423Y0019219D01*
X0052382Y0019331D01*
X0052345Y0019444D01*
X0052312Y0019558D01*
X0052282Y0019674D01*
X0052256Y0019790D01*
X0052235Y0019907D01*
X0052217Y0020025D01*
X0052203Y0020143D01*
X0052193Y0020262D01*
X0052187Y0020381D01*
X0052185Y0020500D01*
D26*
X0055750Y0020500D03*
M02*
