G75*
%MOIN*%
%OFA0B0*%
%FSLAX25Y25*%
%IPPOS*%
%LPD*%
%AMOC8*
5,1,8,0,0,1.08239X$1,22.5*
%
%ADD10R,0.05800X0.03300*%
%ADD11C,0.00500*%
%ADD12C,0.08200*%
%ADD13C,0.03300*%
%ADD14C,0.13800*%
D10*
X0121250Y0059750D03*
X0121250Y0063750D03*
X0121250Y0067750D03*
X0223250Y0067750D03*
X0223250Y0063750D03*
X0223250Y0059750D03*
X0325250Y0059750D03*
X0325250Y0063750D03*
X0325250Y0067750D03*
X0427250Y0067750D03*
X0427250Y0063750D03*
X0427250Y0059750D03*
X0529250Y0059750D03*
X0529250Y0063750D03*
X0529250Y0067750D03*
X0631250Y0067750D03*
X0631250Y0063750D03*
X0631250Y0059750D03*
X0631250Y0161750D03*
X0631250Y0165750D03*
X0631250Y0169750D03*
X0529250Y0169750D03*
X0529250Y0165750D03*
X0529250Y0161750D03*
X0427250Y0161750D03*
X0427250Y0165750D03*
X0427250Y0169750D03*
X0325250Y0169750D03*
X0325250Y0165750D03*
X0325250Y0161750D03*
X0223250Y0161750D03*
X0223250Y0165750D03*
X0223250Y0169750D03*
X0121250Y0169750D03*
X0121250Y0165750D03*
X0121250Y0161750D03*
X0121250Y0263750D03*
X0121250Y0267750D03*
X0121250Y0271750D03*
X0223250Y0271750D03*
X0223250Y0267750D03*
X0223250Y0263750D03*
X0325250Y0263750D03*
X0325250Y0267750D03*
X0325250Y0271750D03*
X0427250Y0271750D03*
X0427250Y0267750D03*
X0427250Y0263750D03*
X0529250Y0263750D03*
X0529250Y0267750D03*
X0529250Y0271750D03*
X0631250Y0271750D03*
X0631250Y0267750D03*
X0631250Y0263750D03*
X0631250Y0365750D03*
X0631250Y0369750D03*
X0631250Y0373750D03*
X0529250Y0373750D03*
X0529250Y0369750D03*
X0529250Y0365750D03*
X0427250Y0365750D03*
X0427250Y0369750D03*
X0427250Y0373750D03*
X0325250Y0373750D03*
X0325250Y0369750D03*
X0325250Y0365750D03*
X0223250Y0365750D03*
X0223250Y0369750D03*
X0223250Y0373750D03*
X0121250Y0373750D03*
X0121250Y0369750D03*
X0121250Y0365750D03*
D11*
X0121750Y0367000D02*
X0121750Y0368500D01*
X0120750Y0368500D01*
X0120750Y0367000D01*
X0121750Y0367000D01*
X0121750Y0367239D02*
X0120750Y0367239D01*
X0120750Y0367738D02*
X0121750Y0367738D01*
X0121750Y0368236D02*
X0120750Y0368236D01*
X0120750Y0371000D02*
X0121750Y0371000D01*
X0121750Y0372500D01*
X0120750Y0372500D01*
X0120750Y0371000D01*
X0120750Y0371227D02*
X0121750Y0371227D01*
X0121750Y0371726D02*
X0120750Y0371726D01*
X0120750Y0372224D02*
X0121750Y0372224D01*
X0222750Y0372224D02*
X0223750Y0372224D01*
X0223750Y0372500D02*
X0223750Y0371000D01*
X0222750Y0371000D01*
X0222750Y0372500D01*
X0223750Y0372500D01*
X0223750Y0371726D02*
X0222750Y0371726D01*
X0222750Y0371227D02*
X0223750Y0371227D01*
X0223750Y0368500D02*
X0222750Y0368500D01*
X0222750Y0367000D01*
X0223750Y0367000D01*
X0223750Y0368500D01*
X0223750Y0368236D02*
X0222750Y0368236D01*
X0222750Y0367738D02*
X0223750Y0367738D01*
X0223750Y0367239D02*
X0222750Y0367239D01*
X0324750Y0367239D02*
X0325750Y0367239D01*
X0325750Y0367000D02*
X0325750Y0368500D01*
X0324750Y0368500D01*
X0324750Y0367000D01*
X0325750Y0367000D01*
X0325750Y0367738D02*
X0324750Y0367738D01*
X0324750Y0368236D02*
X0325750Y0368236D01*
X0325750Y0371000D02*
X0325750Y0372500D01*
X0324750Y0372500D01*
X0324750Y0371000D01*
X0325750Y0371000D01*
X0325750Y0371227D02*
X0324750Y0371227D01*
X0324750Y0371726D02*
X0325750Y0371726D01*
X0325750Y0372224D02*
X0324750Y0372224D01*
X0426750Y0372224D02*
X0427750Y0372224D01*
X0427750Y0372500D02*
X0427750Y0371000D01*
X0426750Y0371000D01*
X0426750Y0372500D01*
X0427750Y0372500D01*
X0427750Y0371726D02*
X0426750Y0371726D01*
X0426750Y0371227D02*
X0427750Y0371227D01*
X0427750Y0368500D02*
X0426750Y0368500D01*
X0426750Y0367000D01*
X0427750Y0367000D01*
X0427750Y0368500D01*
X0427750Y0368236D02*
X0426750Y0368236D01*
X0426750Y0367738D02*
X0427750Y0367738D01*
X0427750Y0367239D02*
X0426750Y0367239D01*
X0528750Y0367239D02*
X0529750Y0367239D01*
X0529750Y0367000D02*
X0529750Y0368500D01*
X0528750Y0368500D01*
X0528750Y0367000D01*
X0529750Y0367000D01*
X0529750Y0367738D02*
X0528750Y0367738D01*
X0528750Y0368236D02*
X0529750Y0368236D01*
X0529750Y0371000D02*
X0529750Y0372500D01*
X0528750Y0372500D01*
X0528750Y0371000D01*
X0529750Y0371000D01*
X0529750Y0371227D02*
X0528750Y0371227D01*
X0528750Y0371726D02*
X0529750Y0371726D01*
X0529750Y0372224D02*
X0528750Y0372224D01*
X0630750Y0372224D02*
X0631750Y0372224D01*
X0631750Y0372500D02*
X0631750Y0371000D01*
X0630750Y0371000D01*
X0630750Y0372500D01*
X0631750Y0372500D01*
X0631750Y0371726D02*
X0630750Y0371726D01*
X0630750Y0371227D02*
X0631750Y0371227D01*
X0631750Y0368500D02*
X0630750Y0368500D01*
X0630750Y0367000D01*
X0631750Y0367000D01*
X0631750Y0368500D01*
X0631750Y0368236D02*
X0630750Y0368236D01*
X0630750Y0367738D02*
X0631750Y0367738D01*
X0631750Y0367239D02*
X0630750Y0367239D01*
X0630750Y0270500D02*
X0631750Y0270500D01*
X0631750Y0269000D01*
X0630750Y0269000D01*
X0630750Y0270500D01*
X0630750Y0270029D02*
X0631750Y0270029D01*
X0631750Y0269531D02*
X0630750Y0269531D01*
X0630750Y0269032D02*
X0631750Y0269032D01*
X0631750Y0266500D02*
X0630750Y0266500D01*
X0630750Y0265000D01*
X0631750Y0265000D01*
X0631750Y0266500D01*
X0631750Y0266041D02*
X0630750Y0266041D01*
X0630750Y0265543D02*
X0631750Y0265543D01*
X0631750Y0265044D02*
X0630750Y0265044D01*
X0529750Y0265044D02*
X0528750Y0265044D01*
X0528750Y0265000D02*
X0529750Y0265000D01*
X0529750Y0266500D01*
X0528750Y0266500D01*
X0528750Y0265000D01*
X0528750Y0265543D02*
X0529750Y0265543D01*
X0529750Y0266041D02*
X0528750Y0266041D01*
X0528750Y0269000D02*
X0529750Y0269000D01*
X0529750Y0270500D01*
X0528750Y0270500D01*
X0528750Y0269000D01*
X0528750Y0269032D02*
X0529750Y0269032D01*
X0529750Y0269531D02*
X0528750Y0269531D01*
X0528750Y0270029D02*
X0529750Y0270029D01*
X0427750Y0270029D02*
X0426750Y0270029D01*
X0426750Y0270500D02*
X0427750Y0270500D01*
X0427750Y0269000D01*
X0426750Y0269000D01*
X0426750Y0270500D01*
X0426750Y0269531D02*
X0427750Y0269531D01*
X0427750Y0269032D02*
X0426750Y0269032D01*
X0426750Y0266500D02*
X0427750Y0266500D01*
X0427750Y0265000D01*
X0426750Y0265000D01*
X0426750Y0266500D01*
X0426750Y0266041D02*
X0427750Y0266041D01*
X0427750Y0265543D02*
X0426750Y0265543D01*
X0426750Y0265044D02*
X0427750Y0265044D01*
X0325750Y0265044D02*
X0324750Y0265044D01*
X0324750Y0265000D02*
X0325750Y0265000D01*
X0325750Y0266500D01*
X0324750Y0266500D01*
X0324750Y0265000D01*
X0324750Y0265543D02*
X0325750Y0265543D01*
X0325750Y0266041D02*
X0324750Y0266041D01*
X0324750Y0269000D02*
X0325750Y0269000D01*
X0325750Y0270500D01*
X0324750Y0270500D01*
X0324750Y0269000D01*
X0324750Y0269032D02*
X0325750Y0269032D01*
X0325750Y0269531D02*
X0324750Y0269531D01*
X0324750Y0270029D02*
X0325750Y0270029D01*
X0223750Y0270029D02*
X0222750Y0270029D01*
X0222750Y0270500D02*
X0223750Y0270500D01*
X0223750Y0269000D01*
X0222750Y0269000D01*
X0222750Y0270500D01*
X0222750Y0269531D02*
X0223750Y0269531D01*
X0223750Y0269032D02*
X0222750Y0269032D01*
X0222750Y0266500D02*
X0223750Y0266500D01*
X0223750Y0265000D01*
X0222750Y0265000D01*
X0222750Y0266500D01*
X0222750Y0266041D02*
X0223750Y0266041D01*
X0223750Y0265543D02*
X0222750Y0265543D01*
X0222750Y0265044D02*
X0223750Y0265044D01*
X0121750Y0265044D02*
X0120750Y0265044D01*
X0120750Y0265000D02*
X0121750Y0265000D01*
X0121750Y0266500D01*
X0120750Y0266500D01*
X0120750Y0265000D01*
X0120750Y0265543D02*
X0121750Y0265543D01*
X0121750Y0266041D02*
X0120750Y0266041D01*
X0120750Y0269000D02*
X0121750Y0269000D01*
X0121750Y0270500D01*
X0120750Y0270500D01*
X0120750Y0269000D01*
X0120750Y0269032D02*
X0121750Y0269032D01*
X0121750Y0269531D02*
X0120750Y0269531D01*
X0120750Y0270029D02*
X0121750Y0270029D01*
X0121750Y0168500D02*
X0120750Y0168500D01*
X0120750Y0167000D01*
X0121750Y0167000D01*
X0121750Y0168500D01*
X0121750Y0168333D02*
X0120750Y0168333D01*
X0120750Y0167835D02*
X0121750Y0167835D01*
X0121750Y0167336D02*
X0120750Y0167336D01*
X0120750Y0164500D02*
X0121750Y0164500D01*
X0121750Y0163000D01*
X0120750Y0163000D01*
X0120750Y0164500D01*
X0120750Y0164345D02*
X0121750Y0164345D01*
X0121750Y0163847D02*
X0120750Y0163847D01*
X0120750Y0163348D02*
X0121750Y0163348D01*
X0222750Y0163348D02*
X0223750Y0163348D01*
X0223750Y0163000D02*
X0223750Y0164500D01*
X0222750Y0164500D01*
X0222750Y0163000D01*
X0223750Y0163000D01*
X0223750Y0163847D02*
X0222750Y0163847D01*
X0222750Y0164345D02*
X0223750Y0164345D01*
X0223750Y0167000D02*
X0223750Y0168500D01*
X0222750Y0168500D01*
X0222750Y0167000D01*
X0223750Y0167000D01*
X0223750Y0167336D02*
X0222750Y0167336D01*
X0222750Y0167835D02*
X0223750Y0167835D01*
X0223750Y0168333D02*
X0222750Y0168333D01*
X0324750Y0168333D02*
X0325750Y0168333D01*
X0325750Y0168500D02*
X0324750Y0168500D01*
X0324750Y0167000D01*
X0325750Y0167000D01*
X0325750Y0168500D01*
X0325750Y0167835D02*
X0324750Y0167835D01*
X0324750Y0167336D02*
X0325750Y0167336D01*
X0325750Y0164500D02*
X0324750Y0164500D01*
X0324750Y0163000D01*
X0325750Y0163000D01*
X0325750Y0164500D01*
X0325750Y0164345D02*
X0324750Y0164345D01*
X0324750Y0163847D02*
X0325750Y0163847D01*
X0325750Y0163348D02*
X0324750Y0163348D01*
X0426750Y0163348D02*
X0427750Y0163348D01*
X0427750Y0163000D02*
X0427750Y0164500D01*
X0426750Y0164500D01*
X0426750Y0163000D01*
X0427750Y0163000D01*
X0427750Y0163847D02*
X0426750Y0163847D01*
X0426750Y0164345D02*
X0427750Y0164345D01*
X0427750Y0167000D02*
X0427750Y0168500D01*
X0426750Y0168500D01*
X0426750Y0167000D01*
X0427750Y0167000D01*
X0427750Y0167336D02*
X0426750Y0167336D01*
X0426750Y0167835D02*
X0427750Y0167835D01*
X0427750Y0168333D02*
X0426750Y0168333D01*
X0528750Y0168333D02*
X0529750Y0168333D01*
X0529750Y0168500D02*
X0528750Y0168500D01*
X0528750Y0167000D01*
X0529750Y0167000D01*
X0529750Y0168500D01*
X0529750Y0167835D02*
X0528750Y0167835D01*
X0528750Y0167336D02*
X0529750Y0167336D01*
X0529750Y0164500D02*
X0528750Y0164500D01*
X0528750Y0163000D01*
X0529750Y0163000D01*
X0529750Y0164500D01*
X0529750Y0164345D02*
X0528750Y0164345D01*
X0528750Y0163847D02*
X0529750Y0163847D01*
X0529750Y0163348D02*
X0528750Y0163348D01*
X0630750Y0163348D02*
X0631750Y0163348D01*
X0631750Y0163000D02*
X0631750Y0164500D01*
X0630750Y0164500D01*
X0630750Y0163000D01*
X0631750Y0163000D01*
X0631750Y0163847D02*
X0630750Y0163847D01*
X0630750Y0164345D02*
X0631750Y0164345D01*
X0631750Y0167000D02*
X0631750Y0168500D01*
X0630750Y0168500D01*
X0630750Y0167000D01*
X0631750Y0167000D01*
X0631750Y0167336D02*
X0630750Y0167336D01*
X0630750Y0167835D02*
X0631750Y0167835D01*
X0631750Y0168333D02*
X0630750Y0168333D01*
X0630750Y0066500D02*
X0631750Y0066500D01*
X0631750Y0065000D01*
X0630750Y0065000D01*
X0630750Y0066500D01*
X0630750Y0066138D02*
X0631750Y0066138D01*
X0631750Y0065640D02*
X0630750Y0065640D01*
X0630750Y0065141D02*
X0631750Y0065141D01*
X0631750Y0062500D02*
X0630750Y0062500D01*
X0630750Y0061000D01*
X0631750Y0061000D01*
X0631750Y0062500D01*
X0631750Y0062150D02*
X0630750Y0062150D01*
X0630750Y0061652D02*
X0631750Y0061652D01*
X0631750Y0061153D02*
X0630750Y0061153D01*
X0529750Y0061153D02*
X0528750Y0061153D01*
X0528750Y0061000D02*
X0529750Y0061000D01*
X0529750Y0062500D01*
X0528750Y0062500D01*
X0528750Y0061000D01*
X0528750Y0061652D02*
X0529750Y0061652D01*
X0529750Y0062150D02*
X0528750Y0062150D01*
X0528750Y0065000D02*
X0529750Y0065000D01*
X0529750Y0066500D01*
X0528750Y0066500D01*
X0528750Y0065000D01*
X0528750Y0065141D02*
X0529750Y0065141D01*
X0529750Y0065640D02*
X0528750Y0065640D01*
X0528750Y0066138D02*
X0529750Y0066138D01*
X0427750Y0066138D02*
X0426750Y0066138D01*
X0426750Y0066500D02*
X0427750Y0066500D01*
X0427750Y0065000D01*
X0426750Y0065000D01*
X0426750Y0066500D01*
X0426750Y0065640D02*
X0427750Y0065640D01*
X0427750Y0065141D02*
X0426750Y0065141D01*
X0426750Y0062500D02*
X0427750Y0062500D01*
X0427750Y0061000D01*
X0426750Y0061000D01*
X0426750Y0062500D01*
X0426750Y0062150D02*
X0427750Y0062150D01*
X0427750Y0061652D02*
X0426750Y0061652D01*
X0426750Y0061153D02*
X0427750Y0061153D01*
X0325750Y0061153D02*
X0324750Y0061153D01*
X0324750Y0061000D02*
X0325750Y0061000D01*
X0325750Y0062500D01*
X0324750Y0062500D01*
X0324750Y0061000D01*
X0324750Y0061652D02*
X0325750Y0061652D01*
X0325750Y0062150D02*
X0324750Y0062150D01*
X0324750Y0065000D02*
X0325750Y0065000D01*
X0325750Y0066500D01*
X0324750Y0066500D01*
X0324750Y0065000D01*
X0324750Y0065141D02*
X0325750Y0065141D01*
X0325750Y0065640D02*
X0324750Y0065640D01*
X0324750Y0066138D02*
X0325750Y0066138D01*
X0223750Y0066138D02*
X0222750Y0066138D01*
X0222750Y0066500D02*
X0223750Y0066500D01*
X0223750Y0065000D01*
X0222750Y0065000D01*
X0222750Y0066500D01*
X0222750Y0065640D02*
X0223750Y0065640D01*
X0223750Y0065141D02*
X0222750Y0065141D01*
X0222750Y0062500D02*
X0223750Y0062500D01*
X0223750Y0061000D01*
X0222750Y0061000D01*
X0222750Y0062500D01*
X0222750Y0062150D02*
X0223750Y0062150D01*
X0223750Y0061652D02*
X0222750Y0061652D01*
X0222750Y0061153D02*
X0223750Y0061153D01*
X0121750Y0061153D02*
X0120750Y0061153D01*
X0120750Y0061000D02*
X0121750Y0061000D01*
X0121750Y0062500D01*
X0120750Y0062500D01*
X0120750Y0061000D01*
X0120750Y0061652D02*
X0121750Y0061652D01*
X0121750Y0062150D02*
X0120750Y0062150D01*
X0120750Y0065000D02*
X0121750Y0065000D01*
X0121750Y0066500D01*
X0120750Y0066500D01*
X0120750Y0065000D01*
X0120750Y0065141D02*
X0121750Y0065141D01*
X0121750Y0065640D02*
X0120750Y0065640D01*
X0120750Y0066138D02*
X0121750Y0066138D01*
D12*
X0098750Y0123750D03*
X0088750Y0123750D03*
X0078750Y0123750D03*
X0068750Y0123750D03*
X0058750Y0123750D03*
X0160750Y0123750D03*
X0170750Y0123750D03*
X0180750Y0123750D03*
X0190750Y0123750D03*
X0200750Y0123750D03*
X0262750Y0123750D03*
X0272750Y0123750D03*
X0282750Y0123750D03*
X0292750Y0123750D03*
X0302750Y0123750D03*
X0364750Y0123750D03*
X0374750Y0123750D03*
X0384750Y0123750D03*
X0394750Y0123750D03*
X0404750Y0123750D03*
X0466750Y0123750D03*
X0476750Y0123750D03*
X0486750Y0123750D03*
X0496750Y0123750D03*
X0506750Y0123750D03*
X0568750Y0123750D03*
X0578750Y0123750D03*
X0588750Y0123750D03*
X0598750Y0123750D03*
X0608750Y0123750D03*
X0608750Y0225750D03*
X0598750Y0225750D03*
X0588750Y0225750D03*
X0578750Y0225750D03*
X0568750Y0225750D03*
X0506750Y0225750D03*
X0496750Y0225750D03*
X0486750Y0225750D03*
X0476750Y0225750D03*
X0466750Y0225750D03*
X0404750Y0225750D03*
X0394750Y0225750D03*
X0384750Y0225750D03*
X0374750Y0225750D03*
X0364750Y0225750D03*
X0302750Y0225750D03*
X0292750Y0225750D03*
X0282750Y0225750D03*
X0272750Y0225750D03*
X0262750Y0225750D03*
X0200750Y0225750D03*
X0190750Y0225750D03*
X0180750Y0225750D03*
X0170750Y0225750D03*
X0160750Y0225750D03*
X0098750Y0225750D03*
X0088750Y0225750D03*
X0078750Y0225750D03*
X0068750Y0225750D03*
X0058750Y0225750D03*
X0058750Y0327750D03*
X0068750Y0327750D03*
X0078750Y0327750D03*
X0088750Y0327750D03*
X0098750Y0327750D03*
X0160750Y0327750D03*
X0170750Y0327750D03*
X0180750Y0327750D03*
X0190750Y0327750D03*
X0200750Y0327750D03*
X0262750Y0327750D03*
X0272750Y0327750D03*
X0282750Y0327750D03*
X0292750Y0327750D03*
X0302750Y0327750D03*
X0364750Y0327750D03*
X0374750Y0327750D03*
X0384750Y0327750D03*
X0394750Y0327750D03*
X0404750Y0327750D03*
X0466750Y0327750D03*
X0476750Y0327750D03*
X0486750Y0327750D03*
X0496750Y0327750D03*
X0506750Y0327750D03*
X0568750Y0327750D03*
X0578750Y0327750D03*
X0588750Y0327750D03*
X0598750Y0327750D03*
X0608750Y0327750D03*
X0608750Y0429750D03*
X0598750Y0429750D03*
X0588750Y0429750D03*
X0578750Y0429750D03*
X0568750Y0429750D03*
X0506750Y0429750D03*
X0496750Y0429750D03*
X0486750Y0429750D03*
X0476750Y0429750D03*
X0466750Y0429750D03*
X0404750Y0429750D03*
X0394750Y0429750D03*
X0384750Y0429750D03*
X0374750Y0429750D03*
X0364750Y0429750D03*
X0302750Y0429750D03*
X0292750Y0429750D03*
X0282750Y0429750D03*
X0272750Y0429750D03*
X0262750Y0429750D03*
X0200750Y0429750D03*
X0190750Y0429750D03*
X0180750Y0429750D03*
X0170750Y0429750D03*
X0160750Y0429750D03*
X0098750Y0429750D03*
X0088750Y0429750D03*
X0078750Y0429750D03*
X0068750Y0429750D03*
X0058750Y0429750D03*
D13*
X0048750Y0033750D03*
X0150750Y0033750D03*
X0252750Y0033750D03*
X0354750Y0033750D03*
X0456750Y0033750D03*
X0558750Y0033750D03*
X0531750Y0108750D03*
X0558750Y0135750D03*
X0633750Y0108750D03*
X0633750Y0210750D03*
X0558750Y0237750D03*
X0531750Y0210750D03*
X0456750Y0237750D03*
X0429750Y0210750D03*
X0354750Y0237750D03*
X0327750Y0210750D03*
X0252750Y0237750D03*
X0225750Y0210750D03*
X0150750Y0237750D03*
X0123750Y0210750D03*
X0048750Y0237750D03*
X0123750Y0312750D03*
X0150750Y0339750D03*
X0225750Y0312750D03*
X0252750Y0339750D03*
X0327750Y0312750D03*
X0354750Y0339750D03*
X0429750Y0312750D03*
X0456750Y0339750D03*
X0531750Y0312750D03*
X0558750Y0339750D03*
X0633750Y0312750D03*
X0633750Y0414750D03*
X0531750Y0414750D03*
X0429750Y0414750D03*
X0327750Y0414750D03*
X0225750Y0414750D03*
X0123750Y0414750D03*
X0048750Y0339750D03*
X0048750Y0135750D03*
X0123750Y0108750D03*
X0150750Y0135750D03*
X0225750Y0108750D03*
X0252750Y0135750D03*
X0327750Y0108750D03*
X0354750Y0135750D03*
X0429750Y0108750D03*
X0456750Y0135750D03*
D14*
X0446750Y0140750D03*
X0424750Y0140750D03*
X0424750Y0118750D03*
X0446750Y0118750D03*
X0526750Y0118750D03*
X0548750Y0118750D03*
X0548750Y0140750D03*
X0526750Y0140750D03*
X0628750Y0140750D03*
X0628750Y0118750D03*
X0628750Y0038750D03*
X0548750Y0038750D03*
X0526750Y0038750D03*
X0446750Y0038750D03*
X0424750Y0038750D03*
X0344750Y0038750D03*
X0322750Y0038750D03*
X0242750Y0038750D03*
X0220750Y0038750D03*
X0140750Y0038750D03*
X0118750Y0038750D03*
X0038750Y0038750D03*
X0038750Y0118750D03*
X0038750Y0140750D03*
X0118750Y0140750D03*
X0140750Y0140750D03*
X0140750Y0118750D03*
X0118750Y0118750D03*
X0220750Y0118750D03*
X0242750Y0118750D03*
X0242750Y0140750D03*
X0220750Y0140750D03*
X0322750Y0140750D03*
X0344750Y0140750D03*
X0344750Y0118750D03*
X0322750Y0118750D03*
X0322750Y0220750D03*
X0344750Y0220750D03*
X0344750Y0242750D03*
X0322750Y0242750D03*
X0242750Y0242750D03*
X0220750Y0242750D03*
X0220750Y0220750D03*
X0242750Y0220750D03*
X0140750Y0220750D03*
X0118750Y0220750D03*
X0118750Y0242750D03*
X0140750Y0242750D03*
X0038750Y0242750D03*
X0038750Y0220750D03*
X0038750Y0322750D03*
X0038750Y0344750D03*
X0118750Y0344750D03*
X0140750Y0344750D03*
X0140750Y0322750D03*
X0118750Y0322750D03*
X0220750Y0322750D03*
X0242750Y0322750D03*
X0242750Y0344750D03*
X0220750Y0344750D03*
X0322750Y0344750D03*
X0344750Y0344750D03*
X0344750Y0322750D03*
X0322750Y0322750D03*
X0424750Y0322750D03*
X0446750Y0322750D03*
X0446750Y0344750D03*
X0424750Y0344750D03*
X0526750Y0344750D03*
X0548750Y0344750D03*
X0548750Y0322750D03*
X0526750Y0322750D03*
X0628750Y0322750D03*
X0628750Y0344750D03*
X0628750Y0424750D03*
X0548750Y0424750D03*
X0526750Y0424750D03*
X0446750Y0424750D03*
X0424750Y0424750D03*
X0344750Y0424750D03*
X0322750Y0424750D03*
X0242750Y0424750D03*
X0220750Y0424750D03*
X0140750Y0424750D03*
X0118750Y0424750D03*
X0038750Y0424750D03*
X0424750Y0242750D03*
X0446750Y0242750D03*
X0446750Y0220750D03*
X0424750Y0220750D03*
X0526750Y0220750D03*
X0548750Y0220750D03*
X0548750Y0242750D03*
X0526750Y0242750D03*
X0628750Y0242750D03*
X0628750Y0220750D03*
M02*
