G75*
%MOIN*%
%OFA0B0*%
%FSLAX25Y25*%
%IPPOS*%
%LPD*%
%AMOC8*
5,1,8,0,0,1.08239X$1,22.5*
%
%ADD10R,0.05800X0.03300*%
%ADD11C,0.00500*%
%ADD12C,0.13800*%
%ADD13C,0.08200*%
D10*
X0131250Y0059500D03*
X0131250Y0063500D03*
X0131250Y0067500D03*
X0243250Y0067500D03*
X0243250Y0063500D03*
X0243250Y0059500D03*
X0355250Y0059500D03*
X0355250Y0063500D03*
X0355250Y0067500D03*
X0355250Y0196500D03*
X0355250Y0200500D03*
X0355250Y0204500D03*
X0243250Y0204500D03*
X0243250Y0200500D03*
X0243250Y0196500D03*
X0131250Y0196500D03*
X0131250Y0200500D03*
X0131250Y0204500D03*
D11*
X0131750Y0203250D02*
X0130750Y0203250D01*
X0130750Y0201750D01*
X0131750Y0201750D01*
X0131750Y0203250D01*
X0131750Y0202979D02*
X0130750Y0202979D01*
X0130750Y0202480D02*
X0131750Y0202480D01*
X0131750Y0201982D02*
X0130750Y0201982D01*
X0130750Y0199250D02*
X0131750Y0199250D01*
X0131750Y0197750D01*
X0130750Y0197750D01*
X0130750Y0199250D01*
X0130750Y0198991D02*
X0131750Y0198991D01*
X0131750Y0198492D02*
X0130750Y0198492D01*
X0130750Y0197994D02*
X0131750Y0197994D01*
X0242750Y0197994D02*
X0243750Y0197994D01*
X0243750Y0197750D02*
X0243750Y0199250D01*
X0242750Y0199250D01*
X0242750Y0197750D01*
X0243750Y0197750D01*
X0243750Y0198492D02*
X0242750Y0198492D01*
X0242750Y0198991D02*
X0243750Y0198991D01*
X0243750Y0201750D02*
X0243750Y0203250D01*
X0242750Y0203250D01*
X0242750Y0201750D01*
X0243750Y0201750D01*
X0243750Y0201982D02*
X0242750Y0201982D01*
X0242750Y0202480D02*
X0243750Y0202480D01*
X0243750Y0202979D02*
X0242750Y0202979D01*
X0354750Y0202979D02*
X0355750Y0202979D01*
X0355750Y0203250D02*
X0354750Y0203250D01*
X0354750Y0201750D01*
X0355750Y0201750D01*
X0355750Y0203250D01*
X0355750Y0202480D02*
X0354750Y0202480D01*
X0354750Y0201982D02*
X0355750Y0201982D01*
X0355750Y0199250D02*
X0354750Y0199250D01*
X0354750Y0197750D01*
X0355750Y0197750D01*
X0355750Y0199250D01*
X0355750Y0198991D02*
X0354750Y0198991D01*
X0354750Y0198492D02*
X0355750Y0198492D01*
X0355750Y0197994D02*
X0354750Y0197994D01*
X0354750Y0066250D02*
X0355750Y0066250D01*
X0355750Y0064750D01*
X0354750Y0064750D01*
X0354750Y0066250D01*
X0354750Y0065888D02*
X0355750Y0065888D01*
X0355750Y0065390D02*
X0354750Y0065390D01*
X0354750Y0064891D02*
X0355750Y0064891D01*
X0355750Y0062250D02*
X0354750Y0062250D01*
X0354750Y0060750D01*
X0355750Y0060750D01*
X0355750Y0062250D01*
X0355750Y0061900D02*
X0354750Y0061900D01*
X0354750Y0061402D02*
X0355750Y0061402D01*
X0355750Y0060903D02*
X0354750Y0060903D01*
X0243750Y0060903D02*
X0242750Y0060903D01*
X0242750Y0060750D02*
X0243750Y0060750D01*
X0243750Y0062250D01*
X0242750Y0062250D01*
X0242750Y0060750D01*
X0242750Y0061402D02*
X0243750Y0061402D01*
X0243750Y0061900D02*
X0242750Y0061900D01*
X0242750Y0064750D02*
X0243750Y0064750D01*
X0243750Y0066250D01*
X0242750Y0066250D01*
X0242750Y0064750D01*
X0242750Y0064891D02*
X0243750Y0064891D01*
X0243750Y0065390D02*
X0242750Y0065390D01*
X0242750Y0065888D02*
X0243750Y0065888D01*
X0131750Y0065888D02*
X0130750Y0065888D01*
X0130750Y0066250D02*
X0131750Y0066250D01*
X0131750Y0064750D01*
X0130750Y0064750D01*
X0130750Y0066250D01*
X0130750Y0065390D02*
X0131750Y0065390D01*
X0131750Y0064891D02*
X0130750Y0064891D01*
X0130750Y0062250D02*
X0131750Y0062250D01*
X0131750Y0060750D01*
X0130750Y0060750D01*
X0130750Y0062250D01*
X0130750Y0061900D02*
X0131750Y0061900D01*
X0131750Y0061402D02*
X0130750Y0061402D01*
X0130750Y0060903D02*
X0131750Y0060903D01*
D12*
X0048750Y0038500D03*
X0128750Y0038500D03*
X0160750Y0038500D03*
X0240750Y0038500D03*
X0272750Y0038500D03*
X0352750Y0038500D03*
X0352750Y0118500D03*
X0352750Y0175500D03*
X0272750Y0175500D03*
X0240750Y0175500D03*
X0240750Y0118500D03*
X0272750Y0118500D03*
X0160750Y0118500D03*
X0128750Y0118500D03*
X0128750Y0175500D03*
X0160750Y0175500D03*
X0048750Y0175500D03*
X0048750Y0118500D03*
X0048750Y0255500D03*
X0128750Y0255500D03*
X0160750Y0255500D03*
X0240750Y0255500D03*
X0272750Y0255500D03*
X0352750Y0255500D03*
D13*
X0332750Y0295500D03*
X0322750Y0295500D03*
X0312750Y0295500D03*
X0302750Y0295500D03*
X0292750Y0295500D03*
X0220750Y0295500D03*
X0210750Y0295500D03*
X0200750Y0295500D03*
X0190750Y0295500D03*
X0180750Y0295500D03*
X0108750Y0295500D03*
X0098750Y0295500D03*
X0088750Y0295500D03*
X0078750Y0295500D03*
X0068750Y0295500D03*
X0068750Y0158500D03*
X0078750Y0158500D03*
X0088750Y0158500D03*
X0098750Y0158500D03*
X0108750Y0158500D03*
X0180750Y0158500D03*
X0190750Y0158500D03*
X0200750Y0158500D03*
X0210750Y0158500D03*
X0220750Y0158500D03*
X0292750Y0158500D03*
X0302750Y0158500D03*
X0312750Y0158500D03*
X0322750Y0158500D03*
X0332750Y0158500D03*
M02*
