%
M48
M72
T01C0.0120
T02C0.0400
T03C0.1300
%
T01
X7340Y4228
X8375Y4850
X9075Y4850
X9975Y4850
X10962Y4425
X11625Y4450
X11525Y6350
X12375Y6350
X12625Y7600
X12625Y8350
X11175Y8250
X9875Y8450
X9225Y8450
X8525Y8450
X7862Y8450
X6625Y8200
X6112Y9500
X6625Y10450
X7675Y10550
X7662Y11900
X8025Y12350
X8025Y13800
X10075Y13800
X9725Y12100
X9812Y11400
X9875Y9850
X9875Y9100
X12612Y9900
X17094Y11368
X17825Y10450
X18875Y10550
X18862Y11900
X19225Y12350
X20925Y12100
X21012Y11400
X21075Y9850
X21075Y9100
X21075Y8450
X20425Y8450
X19725Y8450
X19062Y8450
X17825Y8200
X17312Y9500
X17275Y6600
X17925Y6600
X18618Y6000
X19575Y4850
X20275Y4850
X21175Y4850
X22162Y4425
X22825Y4450
X22725Y6350
X23575Y6350
X23825Y7600
X23825Y8350
X22375Y8250
X23812Y9900
X28294Y11368
X29025Y10450
X30075Y10550
X30062Y11900
X30425Y12350
X30425Y13800
X32475Y13800
X32125Y12100
X32212Y11400
X32275Y9850
X32275Y9100
X32275Y8450
X31625Y8450
X30925Y8450
X30262Y8450
X29025Y8200
X28512Y9500
X28475Y6600
X29125Y6600
X29818Y6000
X30775Y4850
X31475Y4850
X32375Y4850
X33362Y4425
X34025Y4450
X33925Y6350
X34775Y6350
X35025Y7600
X35025Y8350
X33575Y8250
X35012Y9900
X29740Y4228
X18540Y4228
X7418Y6000
X6725Y6600
X6075Y6600
X5894Y11368
X7340Y17928
X8375Y18550
X9075Y18550
X9975Y18550
X10962Y18125
X11625Y18150
X11525Y20050
X12375Y20050
X12625Y21300
X12625Y22050
X11175Y21950
X9875Y22150
X9225Y22150
X8525Y22150
X7862Y22150
X6625Y21900
X6112Y23200
X6625Y24150
X7675Y24250
X7662Y25600
X8025Y26050
X8025Y27500
X10075Y27500
X9725Y25800
X9812Y25100
X9875Y23550
X9875Y22800
X12612Y23600
X17094Y25068
X17825Y24150
X18875Y24250
X17312Y23200
X17825Y21900
X19062Y22150
X19725Y22150
X20425Y22150
X21075Y22150
X21075Y22800
X21075Y23550
X21012Y25100
X20925Y25800
X19225Y26050
X18862Y25600
X19225Y27500
X21275Y27500
X23812Y23600
X23825Y22050
X23825Y21300
X22375Y21950
X22725Y20050
X23575Y20050
X22825Y18150
X22162Y18125
X21175Y18550
X20275Y18550
X19575Y18550
X18540Y17928
X18618Y19700
X17925Y20300
X17275Y20300
X19225Y13800
X21275Y13800
X29740Y17928
X30775Y18550
X31475Y18550
X32375Y18550
X33362Y18125
X34025Y18150
X33925Y20050
X34775Y20050
X35025Y21300
X35025Y22050
X33575Y21950
X32275Y22150
X31625Y22150
X30925Y22150
X30262Y22150
X29025Y21900
X28512Y23200
X29025Y24150
X30075Y24250
X30062Y25600
X30425Y26050
X30425Y27500
X32475Y27500
X32125Y25800
X32212Y25100
X32275Y23550
X32275Y22800
X35012Y23600
X29818Y19700
X29125Y20300
X28475Y20300
X28294Y25068
X7418Y19700
X6725Y20300
X6075Y20300
X5894Y25068
T02
X6875Y29550
X7875Y29550
X8875Y29550
X9875Y29550
X10875Y29550
X18075Y29550
X19075Y29550
X20075Y29550
X21075Y29550
X22075Y29550
X29275Y29550
X30275Y29550
X31275Y29550
X32275Y29550
X33275Y29550
X33275Y15850
X32275Y15850
X31275Y15850
X30275Y15850
X29275Y15850
X22075Y15850
X21075Y15850
X20075Y15850
X19075Y15850
X18075Y15850
X10875Y15850
X9875Y15850
X8875Y15850
X7875Y15850
X6875Y15850
T03
X4875Y3850
X12875Y3850
X16075Y3850
X24075Y3850
X27275Y3850
X35275Y3850
X35275Y11850
X35275Y17550
X27275Y17550
X24075Y17550
X24075Y11850
X27275Y11850
X16075Y11850
X12875Y11850
X12875Y17550
X16075Y17550
X4875Y17550
X4875Y11850
X4875Y25550
X12875Y25550
X16075Y25550
X24075Y25550
X27275Y25550
X35275Y25550
M30
