G75*
%MOIN*%
%OFA0B0*%
%FSLAX25Y25*%
%IPPOS*%
%LPD*%
%AMOC8*
5,1,8,0,0,1.08239X$1,22.5*
%
%ADD10R,0.05131X0.04737*%
%ADD11R,0.04737X0.05131*%
%ADD12R,0.08674X0.05524*%
%ADD13R,0.06115X0.03162*%
%ADD14C,0.13800*%
%ADD15C,0.03300*%
%ADD16C,0.08200*%
%ADD17R,0.01981X0.05918*%
%ADD18R,0.07887X0.09461*%
%ADD19C,0.01990*%
%ADD20R,0.02965X0.05524*%
%ADD21R,0.03950X0.05524*%
%ADD22R,0.03280X0.04068*%
%ADD23R,0.05918X0.05918*%
%ADD24C,0.04737*%
%ADD25C,0.05000*%
%ADD26C,0.06706*%
D10*
X0055404Y0051000D03*
X0062096Y0051000D03*
X0062096Y0058500D03*
X0055404Y0058500D03*
X0085404Y0091000D03*
X0092096Y0091000D03*
X0092096Y0098500D03*
X0085404Y0098500D03*
X0105404Y0098500D03*
X0112096Y0098500D03*
X0112096Y0091000D03*
X0105404Y0091000D03*
X0072096Y0113500D03*
X0065404Y0113500D03*
X0065404Y0123500D03*
X0072096Y0123500D03*
X0072096Y0133500D03*
X0065404Y0133500D03*
X0062096Y0188000D03*
X0055404Y0188000D03*
X0055404Y0195500D03*
X0062096Y0195500D03*
X0085404Y0228000D03*
X0092096Y0228000D03*
X0092096Y0235500D03*
X0085404Y0235500D03*
X0105404Y0235500D03*
X0112096Y0235500D03*
X0112096Y0228000D03*
X0105404Y0228000D03*
X0072096Y0250500D03*
X0065404Y0250500D03*
X0065404Y0260500D03*
X0072096Y0260500D03*
X0072096Y0270500D03*
X0065404Y0270500D03*
X0115404Y0195500D03*
X0122096Y0195500D03*
X0122096Y0188000D03*
X0115404Y0188000D03*
X0167404Y0188000D03*
X0174096Y0188000D03*
X0174096Y0195500D03*
X0167404Y0195500D03*
X0197404Y0228000D03*
X0204096Y0228000D03*
X0204096Y0235500D03*
X0197404Y0235500D03*
X0217404Y0235500D03*
X0224096Y0235500D03*
X0224096Y0228000D03*
X0217404Y0228000D03*
X0184096Y0250500D03*
X0177404Y0250500D03*
X0177404Y0260500D03*
X0184096Y0260500D03*
X0184096Y0270500D03*
X0177404Y0270500D03*
X0227404Y0195500D03*
X0234096Y0195500D03*
X0234096Y0188000D03*
X0227404Y0188000D03*
X0279404Y0188000D03*
X0286096Y0188000D03*
X0286096Y0195500D03*
X0279404Y0195500D03*
X0309404Y0228000D03*
X0316096Y0228000D03*
X0316096Y0235500D03*
X0309404Y0235500D03*
X0329404Y0235500D03*
X0336096Y0235500D03*
X0336096Y0228000D03*
X0329404Y0228000D03*
X0296096Y0250500D03*
X0289404Y0250500D03*
X0289404Y0260500D03*
X0296096Y0260500D03*
X0296096Y0270500D03*
X0289404Y0270500D03*
X0339404Y0195500D03*
X0346096Y0195500D03*
X0346096Y0188000D03*
X0339404Y0188000D03*
X0296096Y0133500D03*
X0289404Y0133500D03*
X0289404Y0123500D03*
X0296096Y0123500D03*
X0296096Y0113500D03*
X0289404Y0113500D03*
X0309404Y0098500D03*
X0316096Y0098500D03*
X0316096Y0091000D03*
X0309404Y0091000D03*
X0329404Y0091000D03*
X0336096Y0091000D03*
X0336096Y0098500D03*
X0329404Y0098500D03*
X0339404Y0058500D03*
X0346096Y0058500D03*
X0346096Y0051000D03*
X0339404Y0051000D03*
X0286096Y0051000D03*
X0279404Y0051000D03*
X0279404Y0058500D03*
X0286096Y0058500D03*
X0234096Y0058500D03*
X0227404Y0058500D03*
X0227404Y0051000D03*
X0234096Y0051000D03*
X0224096Y0091000D03*
X0217404Y0091000D03*
X0217404Y0098500D03*
X0224096Y0098500D03*
X0204096Y0098500D03*
X0197404Y0098500D03*
X0197404Y0091000D03*
X0204096Y0091000D03*
X0184096Y0113500D03*
X0177404Y0113500D03*
X0177404Y0123500D03*
X0184096Y0123500D03*
X0184096Y0133500D03*
X0177404Y0133500D03*
X0174096Y0058500D03*
X0167404Y0058500D03*
X0167404Y0051000D03*
X0174096Y0051000D03*
X0122096Y0051000D03*
X0115404Y0051000D03*
X0115404Y0058500D03*
X0122096Y0058500D03*
D11*
X0103750Y0070154D03*
X0103750Y0076846D03*
X0088750Y0076846D03*
X0088750Y0070154D03*
X0073750Y0070154D03*
X0073750Y0076846D03*
X0043474Y0097594D03*
X0043474Y0104287D03*
X0155474Y0104287D03*
X0155474Y0097594D03*
X0185750Y0076846D03*
X0185750Y0070154D03*
X0200750Y0070154D03*
X0200750Y0076846D03*
X0215750Y0076846D03*
X0215750Y0070154D03*
X0267474Y0097594D03*
X0267474Y0104287D03*
X0297750Y0076846D03*
X0297750Y0070154D03*
X0312750Y0070154D03*
X0312750Y0076846D03*
X0327750Y0076846D03*
X0327750Y0070154D03*
X0327750Y0207154D03*
X0327750Y0213846D03*
X0312750Y0213846D03*
X0312750Y0207154D03*
X0297750Y0207154D03*
X0297750Y0213846D03*
X0267474Y0234594D03*
X0267474Y0241287D03*
X0215750Y0213846D03*
X0215750Y0207154D03*
X0200750Y0207154D03*
X0200750Y0213846D03*
X0185750Y0213846D03*
X0185750Y0207154D03*
X0155474Y0234594D03*
X0155474Y0241287D03*
X0103750Y0213846D03*
X0103750Y0207154D03*
X0088750Y0207154D03*
X0088750Y0213846D03*
X0073750Y0213846D03*
X0073750Y0207154D03*
X0043474Y0234594D03*
X0043474Y0241287D03*
D12*
X0044281Y0226524D03*
X0044281Y0204476D03*
X0133219Y0204476D03*
X0156281Y0204476D03*
X0156281Y0226524D03*
X0133219Y0226524D03*
X0245219Y0226524D03*
X0268281Y0226524D03*
X0268281Y0204476D03*
X0245219Y0204476D03*
X0357219Y0204476D03*
X0357219Y0226524D03*
X0357219Y0089524D03*
X0357219Y0067476D03*
X0268281Y0067476D03*
X0245219Y0067476D03*
X0245219Y0089524D03*
X0268281Y0089524D03*
X0156281Y0089524D03*
X0133219Y0089524D03*
X0133219Y0067476D03*
X0156281Y0067476D03*
X0044281Y0067476D03*
X0044281Y0089524D03*
D13*
X0058750Y0084406D03*
X0058750Y0080469D03*
X0058750Y0076531D03*
X0058750Y0072594D03*
X0118750Y0072594D03*
X0118750Y0076531D03*
X0118750Y0080469D03*
X0118750Y0084406D03*
X0170750Y0084406D03*
X0170750Y0080469D03*
X0170750Y0076531D03*
X0170750Y0072594D03*
X0230750Y0072594D03*
X0230750Y0076531D03*
X0230750Y0080469D03*
X0230750Y0084406D03*
X0282750Y0084406D03*
X0282750Y0080469D03*
X0282750Y0076531D03*
X0282750Y0072594D03*
X0342750Y0072594D03*
X0342750Y0076531D03*
X0342750Y0080469D03*
X0342750Y0084406D03*
X0342750Y0209594D03*
X0342750Y0213531D03*
X0342750Y0217469D03*
X0342750Y0221406D03*
X0282750Y0221406D03*
X0282750Y0217469D03*
X0282750Y0213531D03*
X0282750Y0209594D03*
X0230750Y0209594D03*
X0230750Y0213531D03*
X0230750Y0217469D03*
X0230750Y0221406D03*
X0170750Y0221406D03*
X0170750Y0217469D03*
X0170750Y0213531D03*
X0170750Y0209594D03*
X0118750Y0209594D03*
X0118750Y0213531D03*
X0118750Y0217469D03*
X0118750Y0221406D03*
X0058750Y0221406D03*
X0058750Y0217469D03*
X0058750Y0213531D03*
X0058750Y0209594D03*
D14*
X0048750Y0038500D03*
X0128750Y0038500D03*
X0160750Y0038500D03*
X0240750Y0038500D03*
X0272750Y0038500D03*
X0352750Y0038500D03*
X0352750Y0118500D03*
X0352750Y0175500D03*
X0272750Y0175500D03*
X0240750Y0175500D03*
X0240750Y0118500D03*
X0272750Y0118500D03*
X0160750Y0118500D03*
X0128750Y0118500D03*
X0128750Y0175500D03*
X0160750Y0175500D03*
X0048750Y0175500D03*
X0048750Y0118500D03*
X0048750Y0255500D03*
X0128750Y0255500D03*
X0160750Y0255500D03*
X0240750Y0255500D03*
X0272750Y0255500D03*
X0352750Y0255500D03*
D15*
X0357750Y0295500D03*
X0245750Y0295500D03*
X0133750Y0295500D03*
X0170750Y0170500D03*
X0133750Y0158500D03*
X0058750Y0170500D03*
X0245750Y0158500D03*
X0282750Y0170500D03*
X0357750Y0158500D03*
X0282750Y0033500D03*
X0170750Y0033500D03*
X0058750Y0033500D03*
D16*
X0068750Y0158500D03*
X0078750Y0158500D03*
X0088750Y0158500D03*
X0098750Y0158500D03*
X0108750Y0158500D03*
X0180750Y0158500D03*
X0190750Y0158500D03*
X0200750Y0158500D03*
X0210750Y0158500D03*
X0220750Y0158500D03*
X0292750Y0158500D03*
X0302750Y0158500D03*
X0312750Y0158500D03*
X0322750Y0158500D03*
X0332750Y0158500D03*
X0332750Y0295500D03*
X0322750Y0295500D03*
X0312750Y0295500D03*
X0302750Y0295500D03*
X0292750Y0295500D03*
X0220750Y0295500D03*
X0210750Y0295500D03*
X0200750Y0295500D03*
X0190750Y0295500D03*
X0180750Y0295500D03*
X0108750Y0295500D03*
X0098750Y0295500D03*
X0088750Y0295500D03*
X0078750Y0295500D03*
X0068750Y0295500D03*
D17*
X0079695Y0193886D03*
X0081663Y0193886D03*
X0083632Y0193886D03*
X0085600Y0193886D03*
X0087569Y0193886D03*
X0089537Y0193886D03*
X0091506Y0193886D03*
X0093474Y0193886D03*
X0095443Y0193886D03*
X0097411Y0193886D03*
X0191695Y0193886D03*
X0193663Y0193886D03*
X0195632Y0193886D03*
X0197600Y0193886D03*
X0199569Y0193886D03*
X0201537Y0193886D03*
X0203506Y0193886D03*
X0205474Y0193886D03*
X0207443Y0193886D03*
X0209411Y0193886D03*
X0303695Y0193886D03*
X0305663Y0193886D03*
X0307632Y0193886D03*
X0309600Y0193886D03*
X0311569Y0193886D03*
X0313537Y0193886D03*
X0315506Y0193886D03*
X0317474Y0193886D03*
X0319443Y0193886D03*
X0321411Y0193886D03*
X0321411Y0056886D03*
X0319443Y0056886D03*
X0317474Y0056886D03*
X0315506Y0056886D03*
X0313537Y0056886D03*
X0311569Y0056886D03*
X0309600Y0056886D03*
X0307632Y0056886D03*
X0305663Y0056886D03*
X0303695Y0056886D03*
X0209411Y0056886D03*
X0207443Y0056886D03*
X0205474Y0056886D03*
X0203506Y0056886D03*
X0201537Y0056886D03*
X0199569Y0056886D03*
X0197600Y0056886D03*
X0195632Y0056886D03*
X0193663Y0056886D03*
X0191695Y0056886D03*
X0097411Y0056886D03*
X0095443Y0056886D03*
X0093474Y0056886D03*
X0091506Y0056886D03*
X0089537Y0056886D03*
X0087569Y0056886D03*
X0085600Y0056886D03*
X0083632Y0056886D03*
X0081663Y0056886D03*
X0079695Y0056886D03*
D18*
X0071427Y0034445D03*
X0105679Y0034445D03*
X0183427Y0034445D03*
X0217679Y0034445D03*
X0295427Y0034445D03*
X0329679Y0034445D03*
X0329679Y0171445D03*
X0295427Y0171445D03*
X0217679Y0171445D03*
X0183427Y0171445D03*
X0105679Y0171445D03*
X0071427Y0171445D03*
D19*
X0050753Y0235861D02*
X0048007Y0235861D01*
X0050753Y0235861D02*
X0050753Y0233115D01*
X0048007Y0233115D01*
X0048007Y0235861D01*
X0048007Y0235005D02*
X0050753Y0235005D01*
X0050753Y0242767D02*
X0048007Y0242767D01*
X0050753Y0242767D02*
X0050753Y0240021D01*
X0048007Y0240021D01*
X0048007Y0242767D01*
X0048007Y0241911D02*
X0050753Y0241911D01*
X0160007Y0242767D02*
X0162753Y0242767D01*
X0162753Y0240021D01*
X0160007Y0240021D01*
X0160007Y0242767D01*
X0160007Y0241911D02*
X0162753Y0241911D01*
X0162753Y0235861D02*
X0160007Y0235861D01*
X0162753Y0235861D02*
X0162753Y0233115D01*
X0160007Y0233115D01*
X0160007Y0235861D01*
X0160007Y0235005D02*
X0162753Y0235005D01*
X0272007Y0235861D02*
X0274753Y0235861D01*
X0274753Y0233115D01*
X0272007Y0233115D01*
X0272007Y0235861D01*
X0272007Y0235005D02*
X0274753Y0235005D01*
X0274753Y0242767D02*
X0272007Y0242767D01*
X0274753Y0242767D02*
X0274753Y0240021D01*
X0272007Y0240021D01*
X0272007Y0242767D01*
X0272007Y0241911D02*
X0274753Y0241911D01*
X0274753Y0105767D02*
X0272007Y0105767D01*
X0274753Y0105767D02*
X0274753Y0103021D01*
X0272007Y0103021D01*
X0272007Y0105767D01*
X0272007Y0104911D02*
X0274753Y0104911D01*
X0274753Y0098861D02*
X0272007Y0098861D01*
X0274753Y0098861D02*
X0274753Y0096115D01*
X0272007Y0096115D01*
X0272007Y0098861D01*
X0272007Y0098005D02*
X0274753Y0098005D01*
X0162753Y0098861D02*
X0160007Y0098861D01*
X0162753Y0098861D02*
X0162753Y0096115D01*
X0160007Y0096115D01*
X0160007Y0098861D01*
X0160007Y0098005D02*
X0162753Y0098005D01*
X0162753Y0105767D02*
X0160007Y0105767D01*
X0162753Y0105767D02*
X0162753Y0103021D01*
X0160007Y0103021D01*
X0160007Y0105767D01*
X0160007Y0104911D02*
X0162753Y0104911D01*
X0050753Y0105767D02*
X0048007Y0105767D01*
X0050753Y0105767D02*
X0050753Y0103021D01*
X0048007Y0103021D01*
X0048007Y0105767D01*
X0048007Y0104911D02*
X0050753Y0104911D01*
X0050753Y0098861D02*
X0048007Y0098861D01*
X0050753Y0098861D02*
X0050753Y0096115D01*
X0048007Y0096115D01*
X0048007Y0098861D01*
X0048007Y0098005D02*
X0050753Y0098005D01*
D20*
X0085010Y0123381D03*
X0092490Y0123381D03*
X0092490Y0133619D03*
X0088750Y0133619D03*
X0085010Y0133619D03*
X0197010Y0133619D03*
X0200750Y0133619D03*
X0204490Y0133619D03*
X0204490Y0123381D03*
X0197010Y0123381D03*
X0309010Y0123381D03*
X0316490Y0123381D03*
X0316490Y0133619D03*
X0312750Y0133619D03*
X0309010Y0133619D03*
X0309010Y0260381D03*
X0316490Y0260381D03*
X0316490Y0270619D03*
X0312750Y0270619D03*
X0309010Y0270619D03*
X0204490Y0270619D03*
X0200750Y0270619D03*
X0197010Y0270619D03*
X0197010Y0260381D03*
X0204490Y0260381D03*
X0092490Y0260381D03*
X0085010Y0260381D03*
X0085010Y0270619D03*
X0088750Y0270619D03*
X0092490Y0270619D03*
D21*
X0092293Y0250500D03*
X0085207Y0250500D03*
X0197207Y0250500D03*
X0204293Y0250500D03*
X0309207Y0250500D03*
X0316293Y0250500D03*
X0316293Y0113500D03*
X0309207Y0113500D03*
X0204293Y0113500D03*
X0197207Y0113500D03*
X0092293Y0113500D03*
X0085207Y0113500D03*
D22*
X0104222Y0113500D03*
X0113278Y0113500D03*
X0216222Y0113500D03*
X0225278Y0113500D03*
X0328222Y0113500D03*
X0337278Y0113500D03*
X0337278Y0250500D03*
X0328222Y0250500D03*
X0225278Y0250500D03*
X0216222Y0250500D03*
X0113278Y0250500D03*
X0104222Y0250500D03*
D23*
X0108750Y0259594D03*
X0108750Y0271406D03*
X0220750Y0271406D03*
X0220750Y0259594D03*
X0332750Y0259594D03*
X0332750Y0271406D03*
X0332750Y0134406D03*
X0332750Y0122594D03*
X0220750Y0122594D03*
X0220750Y0134406D03*
X0108750Y0134406D03*
X0108750Y0122594D03*
D24*
X0075750Y0308750D03*
X0325750Y0308750D03*
D25*
X0072185Y0020250D02*
X0072187Y0020369D01*
X0072193Y0020488D01*
X0072203Y0020607D01*
X0072217Y0020725D01*
X0072235Y0020843D01*
X0072256Y0020960D01*
X0072282Y0021076D01*
X0072312Y0021192D01*
X0072345Y0021306D01*
X0072382Y0021419D01*
X0072423Y0021531D01*
X0072468Y0021642D01*
X0072516Y0021751D01*
X0072568Y0021858D01*
X0072624Y0021963D01*
X0072683Y0022067D01*
X0072745Y0022168D01*
X0072811Y0022268D01*
X0072880Y0022365D01*
X0072952Y0022459D01*
X0073028Y0022552D01*
X0073106Y0022641D01*
X0073187Y0022728D01*
X0073272Y0022813D01*
X0073359Y0022894D01*
X0073448Y0022972D01*
X0073541Y0023048D01*
X0073635Y0023120D01*
X0073732Y0023189D01*
X0073832Y0023255D01*
X0073933Y0023317D01*
X0074037Y0023376D01*
X0074142Y0023432D01*
X0074249Y0023484D01*
X0074358Y0023532D01*
X0074469Y0023577D01*
X0074581Y0023618D01*
X0074694Y0023655D01*
X0074808Y0023688D01*
X0074924Y0023718D01*
X0075040Y0023744D01*
X0075157Y0023765D01*
X0075275Y0023783D01*
X0075393Y0023797D01*
X0075512Y0023807D01*
X0075631Y0023813D01*
X0075750Y0023815D01*
X0075869Y0023813D01*
X0075988Y0023807D01*
X0076107Y0023797D01*
X0076225Y0023783D01*
X0076343Y0023765D01*
X0076460Y0023744D01*
X0076576Y0023718D01*
X0076692Y0023688D01*
X0076806Y0023655D01*
X0076919Y0023618D01*
X0077031Y0023577D01*
X0077142Y0023532D01*
X0077251Y0023484D01*
X0077358Y0023432D01*
X0077463Y0023376D01*
X0077567Y0023317D01*
X0077668Y0023255D01*
X0077768Y0023189D01*
X0077865Y0023120D01*
X0077959Y0023048D01*
X0078052Y0022972D01*
X0078141Y0022894D01*
X0078228Y0022813D01*
X0078313Y0022728D01*
X0078394Y0022641D01*
X0078472Y0022552D01*
X0078548Y0022459D01*
X0078620Y0022365D01*
X0078689Y0022268D01*
X0078755Y0022168D01*
X0078817Y0022067D01*
X0078876Y0021963D01*
X0078932Y0021858D01*
X0078984Y0021751D01*
X0079032Y0021642D01*
X0079077Y0021531D01*
X0079118Y0021419D01*
X0079155Y0021306D01*
X0079188Y0021192D01*
X0079218Y0021076D01*
X0079244Y0020960D01*
X0079265Y0020843D01*
X0079283Y0020725D01*
X0079297Y0020607D01*
X0079307Y0020488D01*
X0079313Y0020369D01*
X0079315Y0020250D01*
X0079313Y0020131D01*
X0079307Y0020012D01*
X0079297Y0019893D01*
X0079283Y0019775D01*
X0079265Y0019657D01*
X0079244Y0019540D01*
X0079218Y0019424D01*
X0079188Y0019308D01*
X0079155Y0019194D01*
X0079118Y0019081D01*
X0079077Y0018969D01*
X0079032Y0018858D01*
X0078984Y0018749D01*
X0078932Y0018642D01*
X0078876Y0018537D01*
X0078817Y0018433D01*
X0078755Y0018332D01*
X0078689Y0018232D01*
X0078620Y0018135D01*
X0078548Y0018041D01*
X0078472Y0017948D01*
X0078394Y0017859D01*
X0078313Y0017772D01*
X0078228Y0017687D01*
X0078141Y0017606D01*
X0078052Y0017528D01*
X0077959Y0017452D01*
X0077865Y0017380D01*
X0077768Y0017311D01*
X0077668Y0017245D01*
X0077567Y0017183D01*
X0077463Y0017124D01*
X0077358Y0017068D01*
X0077251Y0017016D01*
X0077142Y0016968D01*
X0077031Y0016923D01*
X0076919Y0016882D01*
X0076806Y0016845D01*
X0076692Y0016812D01*
X0076576Y0016782D01*
X0076460Y0016756D01*
X0076343Y0016735D01*
X0076225Y0016717D01*
X0076107Y0016703D01*
X0075988Y0016693D01*
X0075869Y0016687D01*
X0075750Y0016685D01*
X0075631Y0016687D01*
X0075512Y0016693D01*
X0075393Y0016703D01*
X0075275Y0016717D01*
X0075157Y0016735D01*
X0075040Y0016756D01*
X0074924Y0016782D01*
X0074808Y0016812D01*
X0074694Y0016845D01*
X0074581Y0016882D01*
X0074469Y0016923D01*
X0074358Y0016968D01*
X0074249Y0017016D01*
X0074142Y0017068D01*
X0074037Y0017124D01*
X0073933Y0017183D01*
X0073832Y0017245D01*
X0073732Y0017311D01*
X0073635Y0017380D01*
X0073541Y0017452D01*
X0073448Y0017528D01*
X0073359Y0017606D01*
X0073272Y0017687D01*
X0073187Y0017772D01*
X0073106Y0017859D01*
X0073028Y0017948D01*
X0072952Y0018041D01*
X0072880Y0018135D01*
X0072811Y0018232D01*
X0072745Y0018332D01*
X0072683Y0018433D01*
X0072624Y0018537D01*
X0072568Y0018642D01*
X0072516Y0018749D01*
X0072468Y0018858D01*
X0072423Y0018969D01*
X0072382Y0019081D01*
X0072345Y0019194D01*
X0072312Y0019308D01*
X0072282Y0019424D01*
X0072256Y0019540D01*
X0072235Y0019657D01*
X0072217Y0019775D01*
X0072203Y0019893D01*
X0072193Y0020012D01*
X0072187Y0020131D01*
X0072185Y0020250D01*
D26*
X0075750Y0020250D03*
M02*
